<svg width="30" height="30" viewBox="0 0 30 30" fill="none" xmlns="http://www.w3.org/2000/svg">
<rect width="30" height="30" rx="15" fill="#F6F8F4"/>
<path d="M9.53125 14.125H20.4688C20.5268 14.125 20.5824 14.148 20.6234 14.1891C20.6645 14.2301 20.6875 14.2857 20.6875 14.3438V16.5312C20.6875 16.5893 20.6645 16.6449 20.6234 16.6859C20.5824 16.727 20.5268 16.75 20.4688 16.75H9.53125C9.47323 16.75 9.41759 16.727 9.37657 16.6859C9.33555 16.6449 9.3125 16.5893 9.3125 16.5312V14.3438C9.3125 14.2857 9.33555 14.2301 9.37657 14.1891C9.41759 14.148 9.47323 14.125 9.53125 14.125ZM9.3125 18.9375C9.3125 19.1696 9.40469 19.3921 9.56878 19.5562C9.73288 19.7203 9.95544 19.8125 10.1875 19.8125H19.8125C20.0446 19.8125 20.2671 19.7203 20.4312 19.5562C20.5953 19.3921 20.6875 19.1696 20.6875 18.9375V17.8438C20.6875 17.7857 20.6645 17.7301 20.6234 17.6891C20.5824 17.648 20.5268 17.625 20.4688 17.625H9.53125C9.47323 17.625 9.41759 17.648 9.37657 17.6891C9.33555 17.7301 9.3125 17.7857 9.3125 17.8438V18.9375ZM20.6875 11.9375V13.0312C20.6875 13.0893 20.6645 13.1449 20.6234 13.1859C20.5824 13.227 20.5268 13.25 20.4688 13.25H9.53125C9.47323 13.25 9.41759 13.227 9.37657 13.1859C9.33555 13.1449 9.3125 13.0893 9.3125 13.0312V11.9375C9.3125 11.7054 9.40469 11.4829 9.56878 11.3188C9.73288 11.1547 9.95544 11.0625 10.1875 11.0625H12.375V10.625C12.375 10.2769 12.5133 9.94306 12.7594 9.69692C13.0056 9.45078 13.3394 9.3125 13.6875 9.3125H16.3125C16.6606 9.3125 16.9944 9.45078 17.2406 9.69692C17.4867 9.94306 17.625 10.2769 17.625 10.625V11.0625H19.8125C20.0446 11.0625 20.2671 11.1547 20.4312 11.3188C20.5953 11.4829 20.6875 11.7054 20.6875 11.9375ZM16.75 10.625C16.75 10.509 16.7039 10.3977 16.6219 10.3156C16.5398 10.2336 16.4285 10.1875 16.3125 10.1875H13.6875C13.5715 10.1875 13.4602 10.2336 13.3781 10.3156C13.2961 10.3977 13.25 10.509 13.25 10.625V11.0625H16.75V10.625Z" fill="#61876E"/>
</svg>
