<svg width="48" height="48" viewBox="0 0 48 48" fill="none" xmlns="http://www.w3.org/2000/svg">
<rect width="48" height="48" rx="24" fill="#F9871D" fill-opacity="0.15"/>
<path d="M34.4744 31.5003H32.9997V21.0003C32.9997 20.6025 32.8417 20.2209 32.5604 19.9396C32.2791 19.6583 31.8975 19.5003 31.4997 19.5003H27.3747C27.2752 19.5003 27.1799 19.5398 27.1095 19.6101C27.0392 19.6805 26.9997 19.7758 26.9997 19.8753V31.5003H25.4997V15.0387C25.5022 14.8051 25.4515 14.5739 25.3514 14.3628C25.2514 14.1516 25.1046 13.966 24.9222 13.82C24.6736 13.6261 24.3702 13.5156 24.0552 13.5039C23.7401 13.4923 23.4294 13.5803 23.1672 13.7553L15.6672 18.7503C15.4615 18.8876 15.2928 19.0736 15.1764 19.2918C15.0599 19.51 14.9992 19.7536 14.9997 20.0009V31.5003H13.525C13.3312 31.4974 13.1435 31.5681 12.9996 31.698C12.8558 31.8279 12.7665 32.0075 12.7497 32.2006C12.7429 32.3032 12.7572 32.4061 12.7919 32.5029C12.8265 32.5997 12.8807 32.6884 12.951 32.7634C13.0213 32.8384 13.1063 32.8981 13.2007 32.9388C13.2951 32.9796 13.3969 33.0005 13.4997 33.0003H34.4997C34.6025 33.0005 34.7043 32.9796 34.7987 32.9388C34.8931 32.8981 34.9781 32.8384 35.0484 32.7634C35.1187 32.6884 35.1729 32.5997 35.2075 32.5029C35.2422 32.4061 35.2565 32.3032 35.2497 32.2006C35.2329 32.0075 35.1436 31.8279 34.9997 31.698C34.8559 31.5681 34.6682 31.4974 34.4744 31.5003ZM19.1247 29.2503C19.1249 29.3531 19.104 29.4549 19.0632 29.5493C19.0225 29.6437 18.9628 29.7287 18.8878 29.799C18.8128 29.8693 18.7241 29.9235 18.6273 29.9581C18.5305 29.9927 18.4276 30.0071 18.325 30.0003C18.1317 29.9835 17.952 29.894 17.8221 29.75C17.6921 29.606 17.6216 29.418 17.6247 29.224V27.7756C17.6221 27.5819 17.6928 27.3943 17.8227 27.2505C17.9525 27.1067 18.132 27.0173 18.325 27.0003C18.4276 26.9935 18.5305 27.0078 18.6273 27.0425C18.7241 27.0771 18.8128 27.1313 18.8878 27.2016C18.9628 27.2719 19.0225 27.3569 19.0632 27.4513C19.104 27.5457 19.1249 27.6475 19.1247 27.7503V29.2503ZM19.1247 24.0003C19.1249 24.1031 19.104 24.2049 19.0632 24.2993C19.0225 24.3937 18.9628 24.4787 18.8878 24.549C18.8128 24.6193 18.7241 24.6735 18.6273 24.7081C18.5305 24.7427 18.4276 24.7571 18.325 24.7503C18.1318 24.7333 17.9522 24.6438 17.8223 24.4998C17.6924 24.3558 17.6218 24.168 17.6247 23.974V22.5256C17.6221 22.3319 17.6928 22.1443 17.8227 22.0005C17.9525 21.8567 18.132 21.7673 18.325 21.7503C18.4276 21.7435 18.5305 21.7578 18.6273 21.7925C18.7241 21.8271 18.8128 21.8813 18.8878 21.9516C18.9628 22.0219 19.0225 22.1069 19.0632 22.2013C19.104 22.2957 19.1249 22.3975 19.1247 22.5003V24.0003ZM22.8747 29.2503C22.8749 29.3531 22.854 29.4549 22.8132 29.5493C22.7725 29.6437 22.7128 29.7287 22.6378 29.799C22.5628 29.8693 22.4741 29.9235 22.3773 29.9581C22.2805 29.9927 22.1776 30.0071 22.075 30.0003C21.8821 29.9835 21.7026 29.8943 21.5727 29.7507C21.4428 29.607 21.3721 29.4196 21.3747 29.2259V27.7756C21.3723 27.582 21.4431 27.3947 21.573 27.2511C21.7028 27.1075 21.8821 27.0182 22.075 27.0012C22.1776 26.9944 22.2805 27.0088 22.3773 27.0434C22.4741 27.078 22.5628 27.1322 22.6378 27.2025C22.7128 27.2729 22.7725 27.3579 22.8132 27.4523C22.854 27.5466 22.8749 27.6484 22.8747 27.7512V29.2503ZM22.8747 24.0003C22.8749 24.1031 22.854 24.2049 22.8132 24.2993C22.7725 24.3937 22.7128 24.4787 22.6378 24.549C22.5628 24.6193 22.4741 24.6735 22.3773 24.7081C22.2805 24.7427 22.1776 24.7571 22.075 24.7503C21.8821 24.7333 21.7028 24.6441 21.573 24.5005C21.4431 24.3569 21.3723 24.1695 21.3747 23.9759V22.5256C21.3723 22.332 21.4431 22.1447 21.573 22.0011C21.7028 21.8575 21.8821 21.7682 22.075 21.7512C22.1776 21.7444 22.2805 21.7588 22.3773 21.7934C22.4741 21.828 22.5628 21.8822 22.6378 21.9525C22.7128 22.0229 22.7725 22.1079 22.8132 22.2023C22.854 22.2966 22.8749 22.3984 22.8747 22.5012V24.0003Z" fill="#F9871D"/>
</svg>
