<svg width="48" height="48" viewBox="0 0 48 48" fill="none" xmlns="http://www.w3.org/2000/svg">
<rect width="48" height="48" rx="24" fill="#E7F7F9"/>
<path d="M31.4998 21.0001C31.4998 20.7776 31.5658 20.5601 31.6894 20.3751C31.813 20.1901 31.9887 20.0459 32.1943 19.9607C32.3998 19.8756 32.626 19.8533 32.8443 19.8967C33.0625 19.9401 33.2629 20.0473 33.4203 20.2046C33.5776 20.3619 33.6848 20.5624 33.7282 20.7806C33.7716 20.9989 33.7493 21.2251 33.6641 21.4306C33.579 21.6362 33.4348 21.8119 33.2498 21.9355C33.0648 22.0591 32.8473 22.1251 32.6248 22.1251C32.3264 22.1251 32.0403 22.0066 31.8293 21.7956C31.6183 21.5846 31.4998 21.2985 31.4998 21.0001ZM30.3748 18.7501C30.5973 18.7501 30.8148 18.6841 30.9998 18.5605C31.1848 18.4369 31.329 18.2612 31.4141 18.0556C31.4993 17.8501 31.5216 17.6239 31.4782 17.4056C31.4347 17.1874 31.3276 16.9869 31.1703 16.8296C31.0129 16.6723 30.8125 16.5651 30.5943 16.5217C30.376 16.4783 30.1498 16.5006 29.9443 16.5857C29.7387 16.6709 29.563 16.8151 29.4394 17.0001C29.3158 17.1851 29.2498 17.4026 29.2498 17.6251C29.2498 17.9235 29.3683 18.2096 29.5793 18.4206C29.7903 18.6316 30.0764 18.7501 30.3748 18.7501ZM33.0617 24.0001C32.8635 23.9838 32.667 24.0468 32.5153 24.1753C32.3635 24.3038 32.2691 24.4873 32.2526 24.6854C32.1184 26.2533 31.5391 27.7503 30.583 29.0002C29.6268 30.2501 28.3336 31.2009 26.8554 31.7407C25.3773 32.2806 23.7757 32.387 22.2391 32.0475C20.7025 31.708 19.2948 30.9366 18.1817 29.8242C17.0686 28.7118 16.2964 27.3047 15.9559 25.7683C15.6154 24.2319 15.7208 22.6302 16.2597 21.1517C16.7986 19.6732 17.7486 18.3794 18.9979 17.4224C20.2472 16.4655 21.7438 15.8853 23.3117 15.7501C23.4101 15.742 23.5061 15.7145 23.594 15.6693C23.6818 15.6241 23.76 15.5621 23.8239 15.4867C23.8878 15.4113 23.9362 15.3241 23.9664 15.23C23.9965 15.1359 24.0079 15.0367 23.9998 14.9382C23.9916 14.8397 23.9642 14.7438 23.919 14.6559C23.8738 14.568 23.8117 14.4899 23.7364 14.426C23.661 14.3621 23.5737 14.3137 23.4796 14.2835C23.3855 14.2533 23.2864 14.242 23.1879 14.2501C21.3354 14.4094 19.567 15.0946 18.0907 16.2248C16.6143 17.3551 15.4915 18.8835 14.8543 20.6302C14.2171 22.3769 14.092 24.2693 14.4938 26.0847C14.8956 27.9001 15.8075 29.563 17.1222 30.8777C18.4369 32.1924 20.0998 33.1043 21.9152 33.5061C23.7306 33.9079 25.623 33.7828 27.3697 33.1456C29.1164 32.5084 30.6448 31.3856 31.7751 29.9092C32.9053 28.4329 33.5904 26.6645 33.7498 24.812C33.7582 24.7134 33.7471 24.6142 33.7171 24.5199C33.687 24.4257 33.6386 24.3383 33.5747 24.2628C33.5107 24.1874 33.4325 24.1253 33.3444 24.0802C33.2564 24.0351 33.1603 24.0079 33.0617 24.0001ZM23.9998 17.2501C25.3348 17.2501 26.6398 17.646 27.7499 18.3877C28.8599 19.1294 29.7251 20.1836 30.236 21.417C30.7469 22.6504 30.8805 24.0076 30.6201 25.317C30.3596 26.6263 29.7168 27.8291 28.7727 28.7731C27.8287 29.7171 26.626 30.36 25.3166 30.6204C24.0073 30.8809 22.6501 30.7472 21.4167 30.2363C20.1833 29.7254 19.1291 28.8602 18.3874 27.7502C17.6457 26.6402 17.2498 25.3351 17.2498 24.0001C17.2518 22.2105 17.9636 20.4948 19.229 19.2293C20.4944 17.9639 22.2102 17.2521 23.9998 17.2501ZM23.2498 24.0001C23.2498 24.199 23.3288 24.3898 23.4694 24.5304C23.6101 24.6711 23.8009 24.7501 23.9998 24.7501H28.4998C28.6987 24.7501 28.8895 24.6711 29.0301 24.5304C29.1708 24.3898 29.2498 24.199 29.2498 24.0001C29.2498 23.8012 29.1708 23.6104 29.0301 23.4698C28.8895 23.3291 28.6987 23.2501 28.4998 23.2501H24.7498V19.5001C24.7498 19.3012 24.6708 19.1104 24.5301 18.9698C24.3895 18.8291 24.1987 18.7501 23.9998 18.7501C23.8009 18.7501 23.6101 18.8291 23.4694 18.9698C23.3288 19.1104 23.2498 19.3012 23.2498 19.5001V24.0001ZM26.9998 16.5001C27.2223 16.5001 27.4398 16.4341 27.6248 16.3105C27.8098 16.1869 27.954 16.0112 28.0391 15.8056C28.1243 15.6001 28.1466 15.3739 28.1032 15.1556C28.0598 14.9374 27.9526 14.7369 27.7953 14.5796C27.6379 14.4223 27.4375 14.3151 27.2193 14.2717C27.001 14.2283 26.7748 14.2506 26.5693 14.3357C26.3637 14.4209 26.188 14.5651 26.0644 14.7501C25.9408 14.9351 25.8748 15.1526 25.8748 15.3751C25.8748 15.6735 25.9933 15.9596 26.2043 16.1706C26.4153 16.3816 26.7014 16.5001 26.9998 16.5001Z" fill="#0BB1C4"/>
</svg>
