<svg width="48" height="48" viewBox="0 0 48 48" fill="none" xmlns="http://www.w3.org/2000/svg">
<rect width="48" height="48" rx="24" fill="#F1F9E9"/>
<path d="M29.25 20.3972V19.875C29.25 17.5238 25.7034 15.75 21 15.75C16.2966 15.75 12.75 17.5238 12.75 19.875V23.625C12.75 25.5834 15.2109 27.1397 18.75 27.6056V28.125C18.75 30.4762 22.2966 32.25 27 32.25C31.7034 32.25 35.25 30.4762 35.25 28.125V24.375C35.25 22.4344 32.8669 20.8762 29.25 20.3972ZM17.25 25.7691C15.4134 25.2562 14.25 24.4116 14.25 23.625V22.3059C15.015 22.8478 16.0397 23.2847 17.25 23.5781V25.7691ZM24.75 23.5781C25.9603 23.2847 26.985 22.8478 27.75 22.3059V23.625C27.75 24.4116 26.5866 25.2562 24.75 25.7691V23.5781ZM23.25 30.2691C21.4134 29.7562 20.25 28.9116 20.25 28.125V27.7341C20.4966 27.7434 20.7459 27.75 21 27.75C21.3638 27.75 21.7191 27.7378 22.0678 27.7172C22.4552 27.8559 22.8499 27.9736 23.25 28.0697V30.2691ZM23.25 26.0859C22.5051 26.196 21.753 26.2508 21 26.25C20.247 26.2508 19.4949 26.196 18.75 26.0859V23.8556C19.496 23.9528 20.2477 24.0011 21 24C21.7523 24.0011 22.504 23.9528 23.25 23.8556V26.0859ZM29.25 30.5859C27.758 30.8047 26.242 30.8047 24.75 30.5859V28.35C25.4958 28.4503 26.2475 28.5004 27 28.5C27.7523 28.5011 28.504 28.4528 29.25 28.3556V30.5859ZM33.75 28.125C33.75 28.9116 32.5866 29.7562 30.75 30.2691V28.0781C31.9603 27.7847 32.985 27.3478 33.75 26.8059V28.125Z" fill="#74C627"/>
</svg>
