<svg width="20" height="20" viewBox="0 0 20 20" fill="none" xmlns="http://www.w3.org/2000/svg">
<path d="M7.32969 9.1125C7.47595 9.03138 7.59785 8.91262 7.68275 8.76851C7.76764 8.62441 7.81244 8.46022 7.8125 8.29297V3.18281C7.81252 3.02569 7.77304 2.87108 7.69771 2.7332C7.62237 2.59532 7.51358 2.47858 7.38135 2.39372C7.24912 2.30885 7.09767 2.25859 6.94094 2.24753C6.78421 2.23648 6.62721 2.265 6.48438 2.33047C5.0174 3.00559 3.77435 4.08658 2.90217 5.44567C2.02998 6.80475 1.56511 8.38513 1.5625 10C1.5625 10.2633 1.575 10.5281 1.59922 10.7891C1.61373 10.9441 1.66664 11.0931 1.75317 11.2226C1.83969 11.3521 1.95711 11.4579 2.09481 11.5307C2.23251 11.6034 2.38616 11.6407 2.54188 11.6391C2.69759 11.6376 2.85048 11.5973 2.98672 11.5219L7.32969 9.1125ZM5.9375 4.84844V7.73906L3.50078 9.09062C3.7389 7.41639 4.61126 5.89766 5.9375 4.84844ZM17.3344 5.83281C17.3258 5.81406 17.3156 5.79609 17.3055 5.77812C17.2953 5.76016 17.2852 5.74453 17.2742 5.72891C16.5296 4.46106 15.4667 3.4097 14.1908 2.67893C12.915 1.94815 11.4703 1.56331 10 1.5625C9.75136 1.5625 9.5129 1.66127 9.33709 1.83709C9.16127 2.0129 9.0625 2.25136 9.0625 2.5V9.49453L3.06094 12.9898C2.95422 13.052 2.86083 13.1346 2.78614 13.233C2.71145 13.3314 2.65693 13.4435 2.62571 13.563C2.5945 13.6825 2.5872 13.807 2.60424 13.9293C2.62128 14.0516 2.66232 14.1694 2.725 14.2758C3.66314 15.8727 5.10065 17.1166 6.81579 17.8155C8.53093 18.5145 10.4284 18.6297 12.2155 18.1434C14.0026 17.6571 15.58 16.5962 16.7045 15.1245C17.8289 13.6529 18.4379 11.8521 18.4375 10C18.4396 8.53849 18.0593 7.10185 17.3344 5.83281ZM10.9375 3.50391C12.6047 3.74634 14.115 4.62009 15.1562 5.94453L10.9375 8.40234V3.50391ZM10 16.5625C9.01673 16.5598 8.04649 16.3375 7.16019 15.9117C6.27389 15.4859 5.49393 14.8675 4.87734 14.1016L10.457 10.8516L10.4852 10.8359L16.0938 7.56797C16.491 8.56349 16.6383 9.64115 16.5229 10.7068C16.4074 11.7724 16.0327 12.7935 15.4316 13.6808C14.8304 14.5682 14.021 15.2948 13.0742 15.7972C12.1273 16.2995 11.0718 16.5623 10 16.5625Z" fill="#555555"/>
</svg>
