<svg width="20" height="20" viewBox="0 0 20 20" fill="none" xmlns="http://www.w3.org/2000/svg">
<path d="M15.625 1.5625H4.375C3.9606 1.5625 3.56317 1.72712 3.27015 2.02015C2.97712 2.31317 2.8125 2.7106 2.8125 3.125V16.875C2.8125 17.2894 2.97712 17.6868 3.27015 17.9799C3.56317 18.2729 3.9606 18.4375 4.375 18.4375H15.625C16.0394 18.4375 16.4368 18.2729 16.7299 17.9799C17.0229 17.6868 17.1875 17.2894 17.1875 16.875V3.125C17.1875 2.7106 17.0229 2.31317 16.7299 2.02015C16.4368 1.72712 16.0394 1.5625 15.625 1.5625ZM15.3125 16.5625H4.6875V3.4375H15.3125V16.5625ZM6.5625 5.3125C6.5625 5.06386 6.66127 4.8254 6.83709 4.64959C7.0129 4.47377 7.25136 4.375 7.5 4.375H12.5C12.7486 4.375 12.9871 4.47377 13.1629 4.64959C13.3387 4.8254 13.4375 5.06386 13.4375 5.3125C13.4375 5.56114 13.3387 5.7996 13.1629 5.97541C12.9871 6.15123 12.7486 6.25 12.5 6.25H7.5C7.25136 6.25 7.0129 6.15123 6.83709 5.97541C6.66127 5.7996 6.5625 5.56114 6.5625 5.3125ZM7.25 15.2633C7.60104 14.8846 8.02649 14.5826 8.49969 14.376C8.9729 14.1694 9.48367 14.0628 10 14.0628C10.5163 14.0628 11.0271 14.1694 11.5003 14.376C11.9735 14.5826 12.399 14.8846 12.75 15.2633C12.9191 15.4456 13.1537 15.5533 13.4021 15.5627C13.6506 15.5721 13.8927 15.4824 14.075 15.3133C14.2573 15.1442 14.365 14.9096 14.3744 14.6611C14.3838 14.4127 14.2941 14.1706 14.125 13.9883C13.693 13.5241 13.1855 13.1364 12.6242 12.8414C13.0475 12.3409 13.3189 11.7298 13.4064 11.0802C13.4938 10.4306 13.3937 9.7695 13.1179 9.17488C12.842 8.58027 12.4019 8.07692 11.8494 7.72418C11.2969 7.37145 10.6551 7.18403 9.99961 7.18403C9.34412 7.18403 8.7023 7.37145 8.14981 7.72418C7.59732 8.07692 7.1572 8.58027 6.88134 9.17488C6.60548 9.7695 6.50538 10.4306 6.59285 11.0802C6.68032 11.7298 6.9517 12.3409 7.375 12.8414C6.81405 13.1366 6.30693 13.5243 5.875 13.9883C5.70592 14.1706 5.61621 14.4127 5.62558 14.6611C5.63496 14.9096 5.74266 15.1442 5.925 15.3133C6.10734 15.4824 6.34937 15.5721 6.59786 15.5627C6.84634 15.5533 7.08092 15.4456 7.25 15.2633ZM10 9.0625C10.309 9.0625 10.6111 9.15414 10.8681 9.32583C11.125 9.49752 11.3253 9.74155 11.4436 10.0271C11.5618 10.3126 11.5928 10.6267 11.5325 10.9298C11.4722 11.2329 11.3234 11.5113 11.1049 11.7299C10.8863 11.9484 10.6079 12.0972 10.3048 12.1575C10.0017 12.2178 9.68757 12.1868 9.40206 12.0686C9.11655 11.9503 8.87252 11.75 8.70083 11.4931C8.52914 11.2361 8.4375 10.934 8.4375 10.625C8.4375 10.2106 8.60212 9.81317 8.89515 9.52015C9.18817 9.22712 9.5856 9.0625 10 9.0625Z" fill="#343330"/>
</svg>
