<svg width="260" height="223" viewBox="0 0 260 223" fill="none" xmlns="http://www.w3.org/2000/svg">
<path opacity="0.1" d="M258.808 153.453C251.707 117.644 210.102 89.0234 201.988 51.7072C187.24 4.23076 138.629 -3.27535 107.041 17.3436C56.989 50.0146 110.384 58.1222 12.2486 135.42C-11.9832 154.506 -4.26182 238.758 71.97 219.422C112.995 209.017 125.466 207.557 143.919 205.843C190.431 201.525 270.728 213.565 258.808 153.453Z" fill="#61876E"/>
<path d="M203.244 162.427L131.356 200.395L59.5757 162.427V105.093H203.244V162.427Z" fill="white"/>
<path d="M131.356 200.978C131.26 200.978 131.167 200.955 131.083 200.91L59.3054 162.942C59.2121 162.893 59.1339 162.819 59.0792 162.729C59.0246 162.639 58.9955 162.535 58.9951 162.43V105.093C58.9951 104.939 59.0565 104.791 59.1657 104.681C59.2749 104.572 59.423 104.511 59.5775 104.511H203.244C203.398 104.511 203.547 104.572 203.656 104.681C203.765 104.791 203.826 104.939 203.826 105.093V162.428C203.826 162.533 203.797 162.637 203.742 162.727C203.688 162.817 203.609 162.891 203.516 162.94L131.628 200.909C131.544 200.954 131.451 200.978 131.356 200.978ZM60.1579 162.078L131.356 199.737L202.662 162.077V105.675H60.1579V162.078Z" fill="#262626"/>
<path d="M203.244 92.7897L131.355 54.8218L163.659 39.251L235.548 77.2194L203.244 92.7897Z" fill="white"/>
<path d="M203.244 93.3722C203.149 93.3722 203.056 93.3492 202.972 93.3051L131.084 55.3367C130.988 55.2863 130.909 55.2104 130.854 55.1176C130.799 55.0248 130.772 54.9186 130.774 54.8109C130.776 54.7032 130.807 54.5981 130.865 54.5073C130.924 54.4166 131.006 54.3437 131.103 54.2968L163.407 38.7261C163.489 38.6862 163.579 38.6664 163.67 38.6681C163.762 38.6698 163.851 38.693 163.932 38.7358L235.82 76.7043C235.915 76.7546 235.995 76.8304 236.05 76.9232C236.104 77.016 236.132 77.1221 236.13 77.2298C236.128 77.3376 236.096 77.4426 236.038 77.5333C235.98 77.624 235.898 77.6968 235.801 77.7436L203.497 93.3144C203.418 93.3525 203.332 93.3723 203.244 93.3722ZM132.647 54.8447L203.256 92.1367L234.256 77.1948L163.647 39.9038L132.647 54.8447Z" fill="#262626"/>
<path d="M59.5754 92.7897L131.464 54.8218L99.16 39.251L27.2715 77.2194L59.5754 92.7897Z" fill="white"/>
<path d="M59.5753 93.3722C59.4877 93.3722 59.4012 93.3525 59.3223 93.3144L27.0202 77.7436C26.9232 77.6968 26.8411 77.624 26.7829 77.5333C26.7248 77.4426 26.693 77.3376 26.691 77.2298C26.689 77.1221 26.717 77.016 26.7717 76.9232C26.8265 76.8304 26.9059 76.7546 27.0011 76.7043L98.8896 38.7358C98.9702 38.693 99.0597 38.6698 99.151 38.6681C99.2422 38.6664 99.3326 38.6862 99.4147 38.7261L131.719 54.2968C131.816 54.3437 131.898 54.4166 131.956 54.5073C132.014 54.5981 132.046 54.7032 132.048 54.8109C132.05 54.9186 132.022 55.0248 131.967 55.1176C131.912 55.2104 131.833 55.2863 131.738 55.3367L59.8492 93.3051C59.7648 93.3495 59.6707 93.3726 59.5753 93.3722ZM28.5632 77.1958L59.5632 92.1376L130.172 54.8456L99.1719 39.9038L28.5632 77.1958Z" fill="#262626"/>
<path d="M59.5754 92.79L131.464 130.758L94.5013 150.988L22.6128 113.02L59.5754 92.79Z" fill="white"/>
<path d="M94.5013 151.57C94.4064 151.57 94.313 151.547 94.2292 151.502L22.3408 113.534C22.2479 113.485 22.1702 113.411 22.1157 113.322C22.0612 113.232 22.032 113.129 22.0313 113.024C22.0305 112.919 22.0582 112.815 22.1113 112.725C22.1645 112.634 22.2412 112.56 22.3333 112.509L59.2959 92.2796C59.3803 92.2333 59.475 92.2087 59.5713 92.208C59.6675 92.2074 59.7625 92.2307 59.8475 92.2759L131.736 130.244C131.829 130.294 131.907 130.367 131.961 130.457C132.016 130.547 132.045 130.649 132.045 130.755C132.046 130.86 132.019 130.963 131.965 131.054C131.912 131.144 131.836 131.219 131.743 131.269L94.7808 151.499C94.6951 151.546 94.599 151.57 94.5013 151.57ZM23.8427 113.01L94.4962 150.327L130.234 130.767L59.5806 93.4513L23.8427 113.01Z" fill="#262626"/>
<path d="M203.244 92.79L131.355 130.758L168.318 150.988L240.207 113.02L203.244 92.79Z" fill="white"/>
<path d="M168.319 151.57C168.221 151.57 168.125 151.545 168.04 151.499L131.077 131.269C130.985 131.219 130.908 131.144 130.855 131.054C130.802 130.963 130.774 130.86 130.775 130.755C130.776 130.649 130.805 130.547 130.859 130.457C130.914 130.367 130.992 130.294 131.084 130.244L202.973 92.2759C203.058 92.2307 203.153 92.2074 203.249 92.208C203.345 92.2087 203.44 92.2333 203.524 92.2796L240.487 112.509C240.579 112.56 240.656 112.634 240.709 112.725C240.762 112.815 240.79 112.919 240.789 113.024C240.788 113.129 240.759 113.232 240.705 113.322C240.65 113.411 240.572 113.485 240.48 113.534L168.591 151.502C168.507 151.547 168.414 151.57 168.319 151.57ZM132.587 130.767L168.325 150.327L238.979 113.01L203.24 93.4513L132.587 130.767Z" fill="#262626"/>
<path d="M131.464 54.8223L59.5757 92.7902L131.356 130.759L203.244 92.7902L131.464 54.8223Z" fill="#262626"/>
<path d="M131.938 130.758H130.773V200.396H131.938V130.758Z" fill="#262626"/>
<path d="M91.0777 89.3431C90.9813 89.3432 90.8873 89.313 90.8089 89.2569C90.7081 89.1855 90.6398 89.0769 90.619 88.9552C90.5982 88.8334 90.6266 88.7083 90.698 88.6075C90.7842 88.4859 99.2039 76.3136 89.8045 65.2166C88.1409 63.2423 86.0656 61.6557 83.7242 60.568C81.3827 59.4803 78.8317 58.9178 76.25 58.9199H76.1233C77.0159 62.0207 76.8565 64.7777 75.5926 66.8928C75.0541 67.8485 74.2594 68.6349 73.298 69.1633C72.3366 69.6918 71.2468 69.9412 70.1513 69.8837C69.2444 69.8094 68.3789 69.4723 67.6608 68.9136C66.9426 68.3549 66.403 67.5989 66.108 66.7381C65.0742 64.0417 66.1546 61.4272 69.002 59.7421C70.8058 58.7474 72.8101 58.1709 74.8668 58.0552C74.1978 56.2814 73.3277 54.5899 72.2738 53.014C68.8799 47.8308 62.6945 44.2426 55.303 43.1697C49.0389 42.2608 43.0357 43.3314 40.0071 45.8965C39.9128 45.9763 39.7906 46.0154 39.6675 46.0051C39.5443 45.9948 39.4303 45.9361 39.3505 45.8417C39.2707 45.7474 39.2316 45.6252 39.2418 45.5021C39.2521 45.3789 39.3109 45.2649 39.4052 45.1851C42.6281 42.4556 48.9206 41.3016 55.4368 42.2501C63.0924 43.3617 69.513 47.0994 73.0536 52.5058C74.2015 54.2204 75.1352 56.069 75.834 58.0105C78.619 57.9436 81.3836 58.5024 83.9241 59.6457C86.4646 60.789 88.7162 62.4876 90.5131 64.6166C100.386 76.2722 91.5459 89.0212 91.4555 89.1488C91.4125 89.2088 91.3557 89.2578 91.2901 89.2915C91.2244 89.3253 91.1516 89.343 91.0777 89.3431ZM75.1692 58.9539C73.1751 59.0389 71.2277 59.5832 69.4785 60.5444C67.0206 61.9988 66.1103 64.1353 66.9801 66.405C67.2158 67.1005 67.649 67.7122 68.2269 68.1653C68.8047 68.6184 69.5021 68.8932 70.2337 68.9561C71.1549 68.9974 72.0694 68.7816 72.8749 68.3329C73.6804 67.8842 74.3453 67.2202 74.7951 66.4153C75.9551 64.4726 76.0613 61.8903 75.1678 58.9539H75.1692Z" fill="#292A2E"/>
<path d="M31.9666 53.4083C31.1749 53.6462 30.3217 53.5656 29.5886 53.1837C28.8554 52.8018 28.3003 52.1489 28.0414 51.3638C27.7825 50.5788 27.8403 49.7237 28.2025 48.9806C28.5646 48.2375 29.2026 47.6652 29.9804 47.3854C30.7583 47.1057 31.6146 47.1406 32.3671 47.4828C33.1196 47.825 33.7087 48.4474 34.0092 49.2175C34.3096 49.9876 34.2975 50.8446 33.9755 51.6059C33.6536 52.3673 33.0471 52.9729 32.2853 53.2937C32.1812 53.3377 32.0748 53.376 31.9666 53.4083ZM30.4176 48.2316C30.3421 48.2543 30.268 48.281 30.1954 48.3117C29.6594 48.5377 29.2327 48.9641 29.0064 49.5C28.7801 50.0359 28.7719 50.639 28.9837 51.1808C29.1954 51.7226 29.6103 52.1603 30.14 52.4008C30.6698 52.6412 31.2724 52.6653 31.8196 52.468C32.3669 52.2707 32.8155 51.8675 33.0698 51.3443C33.3242 50.8212 33.3643 50.2194 33.1815 49.6671C32.9987 49.1148 32.6076 48.6557 32.0913 48.3876C31.5751 48.1195 30.9745 48.0635 30.4176 48.2316Z" fill="#292A2E"/>
<path d="M31.961 46.1078C31.2121 46.3314 30.407 46.2703 29.7005 45.9362C28.9939 45.6021 28.4358 45.0186 28.1334 44.2979C27.891 43.7201 27.8254 43.0834 27.9448 42.4683C28.0643 41.8532 28.3634 41.2874 28.8045 40.8423C29.2455 40.3973 29.8087 40.093 30.4226 39.968C31.0366 39.843 31.6739 39.9029 32.2539 40.1401C32.8338 40.3773 33.3304 40.7811 33.6808 41.3005C34.0312 41.82 34.2198 42.4317 34.2225 43.0582C34.2253 43.6848 34.0422 44.2981 33.6964 44.8207C33.3505 45.3432 32.8575 45.7514 32.2797 45.9937C32.1755 46.0373 32.0692 46.0753 31.961 46.1078ZM30.4139 40.9306C30.3375 40.9535 30.2624 40.9804 30.1889 41.0112C29.6423 41.2408 29.2093 41.6779 28.985 42.2266C28.7607 42.7753 28.7634 43.3906 28.9925 43.9373C29.1596 44.3359 29.4386 44.6774 29.7958 44.9207C30.153 45.164 30.573 45.2986 31.005 45.3082C31.437 45.3178 31.8626 45.202 32.2302 44.9748C32.5978 44.7476 32.8918 44.4188 33.0764 44.0281C33.2611 43.6374 33.3286 43.2016 33.2708 42.7733C33.2129 42.3451 33.0323 41.9427 32.7506 41.615C32.4689 41.2873 32.0983 41.0482 31.6836 40.9266C31.2689 40.8051 30.8279 40.8068 30.4139 40.9306Z" fill="#292A2E"/>
<path d="M31.0571 49.4028C33.3449 49.4028 35.1996 48.164 35.1996 46.6359C35.1996 45.1079 33.3449 43.8691 31.0571 43.8691C28.7692 43.8691 26.9146 45.1079 26.9146 46.6359C26.9146 48.164 28.7692 49.4028 31.0571 49.4028Z" fill="white"/>
<path d="M32.8903 49.6065C32.2964 49.782 31.6802 49.8705 31.0608 49.8692C28.4762 49.8692 26.4487 48.453 26.4487 46.6403C26.4487 44.8276 28.4701 43.4062 31.0539 43.4034C32.1803 43.3818 33.2886 43.6894 34.2427 44.2886C34.6713 44.5118 35.0304 44.8482 35.2812 45.2612C35.532 45.6743 35.6649 46.1481 35.6653 46.6313C35.6657 47.1145 35.5337 47.5886 35.2837 48.0021C35.0336 48.4155 34.6751 48.7526 34.2469 48.9766C33.8284 49.2526 33.3712 49.4648 32.8903 49.6065ZM29.5072 44.5569C28.2624 44.9296 27.38 45.7342 27.3805 46.6379C27.3805 47.8851 29.0655 48.9375 31.0608 48.9356C32.0034 48.9555 32.9313 48.7003 33.7312 48.2014C34.0312 48.0632 34.2853 47.8419 34.4633 47.5637C34.6413 47.2854 34.7358 46.962 34.7355 46.6317C34.7352 46.3014 34.6401 45.9781 34.4616 45.7002C34.2831 45.4223 34.0287 45.2014 33.7284 45.0638C32.9279 44.5659 31.9996 44.3123 31.0571 44.3342C30.5324 44.3329 30.0103 44.4079 29.5072 44.5569Z" fill="#292A2E"/>
<path d="M32.0729 49.3177L31.9751 43.9369L30.6371 43.8828L30.5435 49.3805L32.0729 49.3177Z" fill="#292A2E"/>
<path d="M25.561 47.8065C25.7972 47.8065 25.9886 47.615 25.9886 47.3788C25.9886 47.1426 25.7972 46.9512 25.561 46.9512C25.3248 46.9512 25.1333 47.1426 25.1333 47.3788C25.1333 47.615 25.3248 47.8065 25.561 47.8065Z" fill="#292A2E"/>
<path d="M25.895 45.5184C26.1311 45.5184 26.3226 45.3269 26.3226 45.0908C26.3226 44.8546 26.1311 44.6631 25.895 44.6631C25.6588 44.6631 25.4673 44.8546 25.4673 45.0908C25.4673 45.3269 25.6588 45.5184 25.895 45.5184Z" fill="#292A2E"/>
<path d="M164.278 62.4763C164.178 62.4763 164.081 62.4443 164.001 62.385C163.921 62.3257 163.862 62.2423 163.832 62.1469C162.287 56.3765 161.875 50.3613 162.618 44.4341C163.823 35.7689 168.601 24.3965 184.528 19.4168C186.769 18.6963 189.068 18.1693 191.399 17.8417C192.149 13.1546 195.004 8.07007 201.389 4.56206C216.559 -3.77329 226.805 3.70533 226.907 3.78173C227.006 3.85586 227.071 3.96623 227.089 4.08854C227.106 4.21086 227.074 4.3351 227 4.43395C226.926 4.53279 226.816 4.59814 226.693 4.61561C226.571 4.63309 226.447 4.60125 226.348 4.52712C226.251 4.45445 216.458 -2.6552 201.838 5.3792C195.872 8.65753 193.141 13.3628 192.365 17.7308C199.389 17.039 202.753 19.3823 204.263 21.1522C205.198 22.2165 205.798 23.5321 205.99 24.9352C206.181 26.3383 205.956 27.7668 205.341 29.0426C204.856 30.0739 204.069 30.9336 203.084 31.5083C202.1 32.0829 200.965 32.3455 199.828 32.2613C195.905 32.0312 192.658 28.731 191.558 23.8533C191.195 22.2021 191.098 20.5035 191.272 18.8219C189.079 19.1369 186.917 19.6341 184.807 20.3085C172.394 24.1897 165.24 32.3512 163.541 44.565C162.813 50.3577 163.214 56.2367 164.723 61.8767C164.744 61.9464 164.749 62.0201 164.737 62.0919C164.725 62.1637 164.696 62.2316 164.652 62.2902C164.609 62.3488 164.552 62.3964 164.487 62.4292C164.422 62.462 164.351 62.4791 164.278 62.4791V62.4763ZM192.222 18.7054C192.027 20.355 192.11 22.0255 192.467 23.6478C193.473 28.11 196.384 31.1255 199.882 31.331C200.836 31.3993 201.788 31.1778 202.613 30.6956C203.438 30.2134 204.099 29.493 204.507 28.6289C205.04 27.5163 205.234 26.2716 205.064 25.0499C204.894 23.8281 204.369 22.6832 203.553 21.7578C201.375 19.2016 197.4 18.1692 192.222 18.7054Z" fill="#292A2E"/>
<path d="M237.759 8.49043C237.131 8.48911 236.517 8.31039 235.987 7.97489C235.456 7.6394 235.032 7.1608 234.762 6.59433C234.492 6.02787 234.388 5.39663 234.461 4.77348C234.535 4.15032 234.783 3.56065 235.177 3.07252C235.572 2.58438 236.096 2.21769 236.69 2.01475C237.283 1.81182 237.922 1.78092 238.533 1.92561C239.144 2.07031 239.701 2.3847 240.14 2.83251C240.58 3.28033 240.884 3.8433 241.017 4.45645C241.121 4.94251 241.116 5.44576 241.001 5.92936C240.885 6.41297 240.663 6.86468 240.351 7.25142C240.039 7.63817 239.644 7.95015 239.195 8.16453C238.747 8.37891 238.256 8.49026 237.759 8.49043ZM237.766 2.76767C237.27 2.76766 236.787 2.92134 236.382 3.20752C235.978 3.49371 235.672 3.89831 235.507 4.36556C235.342 4.83282 235.326 5.33973 235.462 5.81642C235.597 6.29312 235.877 6.71613 236.262 7.02715C236.648 7.33818 237.121 7.52191 237.615 7.55303C238.11 7.58414 238.602 7.4611 239.024 7.20087C239.445 6.94064 239.776 6.55603 239.97 6.10005C240.164 5.64406 240.211 5.13916 240.106 4.65491C239.993 4.11915 239.698 3.63892 239.272 3.29515C238.845 2.95138 238.313 2.76509 237.766 2.76767Z" fill="#292A2E"/>
<path d="M236.356 16.094C235.502 16.094 234.681 15.7666 234.061 15.1792C233.442 14.5918 233.071 13.7892 233.025 12.9366C232.979 12.084 233.262 11.2462 233.815 10.5958C234.368 9.94537 235.15 9.53178 235.999 9.44017C236.848 9.34856 237.699 9.5859 238.379 10.1033C239.058 10.6208 239.513 11.3789 239.65 12.2217C239.787 13.0644 239.596 13.9277 239.116 14.6338C238.635 15.3398 237.903 15.8349 237.069 16.0172C236.835 16.0683 236.596 16.094 236.356 16.094ZM236.368 10.3708C236.196 10.3709 236.024 10.3895 235.856 10.4263C235.26 10.557 234.738 10.9108 234.396 11.4149C234.054 11.919 233.918 12.5351 234.016 13.1364C234.114 13.7377 234.439 14.2785 234.924 14.6475C235.409 15.0165 236.017 15.1856 236.623 15.1201C237.228 15.0545 237.786 14.7593 238.181 14.2952C238.575 13.8311 238.777 13.2333 238.745 12.6249C238.712 12.0165 238.447 11.4437 238.005 11.0244C237.563 10.6051 236.977 10.3712 236.368 10.3708Z" fill="#292A2E"/>
<path d="M241.359 9.85143C241.653 8.26018 239.96 6.61381 237.577 6.17419C235.195 5.73456 233.025 6.66815 232.732 8.25941C232.438 9.85066 234.132 11.497 236.514 11.9366C238.896 12.3763 241.066 11.4427 241.359 9.85143Z" fill="white"/>
<path d="M237.687 12.5115C237.265 12.5108 236.844 12.4718 236.429 12.395C235.258 12.2006 234.168 11.6686 233.295 10.8641C232.912 10.5378 232.618 10.1204 232.44 9.6504C232.261 9.1804 232.204 8.67301 232.274 8.17513C232.387 7.68522 232.621 7.23164 232.956 6.85628C233.29 6.48091 233.714 6.19587 234.187 6.02746C235.295 5.60892 236.497 5.50131 237.662 5.71628C238.827 5.93124 239.911 6.46061 240.797 7.24711C241.179 7.5734 241.473 7.99084 241.651 8.46084C241.83 8.93084 241.887 9.43824 241.817 9.93612C241.704 10.426 241.47 10.8796 241.136 11.255C240.801 11.6303 240.378 11.9154 239.904 12.0838C239.202 12.3745 238.448 12.52 237.687 12.5115ZM236.401 6.5306C235.768 6.52256 235.14 6.64252 234.555 6.88327C234.224 6.99408 233.926 7.1857 233.688 7.4408C233.449 7.6959 233.278 8.00642 233.19 8.34424C233.152 8.69124 233.201 9.04231 233.333 9.36566C233.464 9.68901 233.674 9.97442 233.944 10.1961C234.698 10.8538 235.614 11.2966 236.598 11.4782C237.581 11.6598 238.596 11.5733 239.535 11.228C239.866 11.1172 240.164 10.9255 240.402 10.6704C240.64 10.4153 240.811 10.1048 240.9 9.76701C240.938 9.41998 240.889 9.06883 240.758 8.74544C240.626 8.42205 240.416 8.13666 240.146 7.91517C239.404 7.23862 238.481 6.79293 237.49 6.63263C237.132 6.56581 236.767 6.53166 236.402 6.5306H236.401Z" fill="#292A2E"/>
<path d="M236.508 6.06738L235.571 11.6886L236.953 12.0035L238.112 6.29706L236.508 6.06738Z" fill="#292A2E"/>
<path d="M242.124 12.1146C242.374 12.1146 242.577 11.9119 242.577 11.6618C242.577 11.4117 242.374 11.209 242.124 11.209C241.874 11.209 241.671 11.4117 241.671 11.6618C241.671 11.9119 241.874 12.1146 242.124 12.1146Z" fill="#292A2E"/>
<path d="M242.913 9.79628C243.163 9.79628 243.366 9.59354 243.366 9.34345C243.366 9.09336 243.163 8.89062 242.913 8.89062C242.663 8.89062 242.46 9.09336 242.46 9.34345C242.46 9.59354 242.663 9.79628 242.913 9.79628Z" fill="#292A2E"/>
</svg>
