<svg width="48" height="48" viewBox="0 0 48 48" fill="none" xmlns="http://www.w3.org/2000/svg">
<rect width="48" height="48" rx="24" fill="#FFEFEB"/>
<path d="M32.0306 19.7194L26.7806 14.4694C26.7109 14.3997 26.6282 14.3445 26.5371 14.3069C26.4461 14.2693 26.3485 14.2499 26.25 14.25H17.25C16.8522 14.25 16.4706 14.408 16.1893 14.6893C15.908 14.9706 15.75 15.3522 15.75 15.75V32.25C15.75 32.6478 15.908 33.0294 16.1893 33.3107C16.4706 33.592 16.8522 33.75 17.25 33.75H30.75C31.1478 33.75 31.5294 33.592 31.8107 33.3107C32.092 33.0294 32.25 32.6478 32.25 32.25V20.25C32.2501 20.1515 32.2307 20.0539 32.1931 19.9629C32.1555 19.8718 32.1003 19.7891 32.0306 19.7194ZM27 28.5H21C20.8011 28.5 20.6103 28.421 20.4697 28.2803C20.329 28.1397 20.25 27.9489 20.25 27.75C20.25 27.5511 20.329 27.3603 20.4697 27.2197C20.6103 27.079 20.8011 27 21 27H27C27.1989 27 27.3897 27.079 27.5303 27.2197C27.671 27.3603 27.75 27.5511 27.75 27.75C27.75 27.9489 27.671 28.1397 27.5303 28.2803C27.3897 28.421 27.1989 28.5 27 28.5ZM27 25.5H21C20.8011 25.5 20.6103 25.421 20.4697 25.2803C20.329 25.1397 20.25 24.9489 20.25 24.75C20.25 24.5511 20.329 24.3603 20.4697 24.2197C20.6103 24.079 20.8011 24 21 24H27C27.1989 24 27.3897 24.079 27.5303 24.2197C27.671 24.3603 27.75 24.5511 27.75 24.75C27.75 24.9489 27.671 25.1397 27.5303 25.2803C27.3897 25.421 27.1989 25.5 27 25.5ZM26.25 20.25V16.125L30.375 20.25H26.25Z" fill="#FF613A"/>
</svg>
