<svg width="20" height="20" viewBox="0 0 20 20" fill="none" xmlns="http://www.w3.org/2000/svg">
<path d="M9.99998 5.93751C9.19649 5.93751 8.41105 6.17577 7.74298 6.62216C7.0749 7.06856 6.5542 7.70303 6.24672 8.44536C5.93924 9.18768 5.85879 10.0045 6.01554 10.7926C6.17229 11.5806 6.55921 12.3045 7.12736 12.8726C7.69551 13.4408 8.41938 13.8277 9.20743 13.9845C9.99547 14.1412 10.8123 14.0608 11.5546 13.7533C12.297 13.4458 12.9314 12.9251 13.3778 12.257C13.8242 11.5889 14.0625 10.8035 14.0625 10C14.0612 8.92295 13.6328 7.89036 12.8712 7.12876C12.1096 6.36716 11.077 5.93875 9.99998 5.93751ZM9.99998 12.1875C9.56733 12.1875 9.1444 12.0592 8.78467 11.8188C8.42494 11.5785 8.14456 11.2368 7.97899 10.8371C7.81343 10.4374 7.77011 9.99758 7.85451 9.57325C7.93892 9.14892 8.14726 8.75914 8.45319 8.45321C8.75911 8.14729 9.14889 7.93895 9.57322 7.85454C9.99755 7.77014 10.4374 7.81346 10.8371 7.97902C11.2368 8.14459 11.5785 8.42497 11.8188 8.7847C12.0592 9.14443 12.1875 9.56736 12.1875 10C12.1875 10.5802 11.957 11.1366 11.5468 11.5468C11.1365 11.957 10.5801 12.1875 9.99998 12.1875ZM17.1875 10.0617V9.93829L18.2812 8.57032C18.373 8.4557 18.4366 8.32111 18.4669 8.1774C18.4972 8.0337 18.4932 7.88489 18.4555 7.74298C18.2581 6.99853 17.9631 6.28347 17.5781 5.61642C17.5039 5.48921 17.4009 5.38127 17.2772 5.30132C17.1536 5.22138 17.0128 5.17168 16.8664 5.15626L15.1258 4.96095L15.039 4.87423L14.8437 3.13282C14.8282 2.98653 14.7784 2.84594 14.6985 2.72243C14.6186 2.59893 14.5107 2.49597 14.3836 2.42189C13.7165 2.0357 13.0011 1.73964 12.2562 1.54142C12.1142 1.50418 11.9654 1.50083 11.8218 1.53163C11.6783 1.56244 11.5439 1.62653 11.4297 1.71876L10.0617 2.81251H9.93826L8.57029 1.71876C8.45567 1.62695 8.32108 1.56335 8.17738 1.53309C8.03367 1.50283 7.88486 1.50675 7.74295 1.54454C6.99831 1.74314 6.28324 2.03947 5.61639 2.42579C5.48968 2.49957 5.38204 2.60204 5.30213 2.72497C5.22221 2.8479 5.17224 2.98786 5.15623 3.1336L4.96092 4.87423L4.8742 4.96095L3.13279 5.15626C2.9865 5.1718 2.84591 5.22155 2.72241 5.30149C2.5989 5.38143 2.49594 5.48931 2.42186 5.61642C2.03676 6.28368 1.74175 6.99902 1.54451 7.74376C1.50685 7.88556 1.50299 8.03421 1.53325 8.17777C1.56351 8.32133 1.62704 8.45579 1.71873 8.57032L2.81248 9.93829V10.0617L1.71873 11.4297C1.62692 11.5443 1.56332 11.6789 1.53306 11.8226C1.5028 11.9663 1.50672 12.1151 1.54451 12.257C1.74336 13.0017 2.03995 13.7168 2.42654 14.3836C2.50024 14.5102 2.60259 14.6178 2.72538 14.6977C2.84816 14.7776 2.98797 14.8276 3.13357 14.8438L4.8742 15.0375L4.96092 15.1242L5.15623 16.8672C5.17177 17.0135 5.22152 17.1541 5.30146 17.2776C5.3814 17.4011 5.48928 17.504 5.61639 17.5781C6.28349 17.9643 6.99883 18.2604 7.74373 18.4586C7.88577 18.4958 8.03457 18.4992 8.17814 18.4684C8.32171 18.4376 8.45603 18.3735 8.57029 18.2813L9.93826 17.1875H10.0617L11.4297 18.2813C11.5443 18.3731 11.6789 18.4367 11.8226 18.4669C11.9663 18.4972 12.1151 18.4933 12.257 18.4555C13.0015 18.2581 13.7165 17.9631 14.3836 17.5781C14.5106 17.5045 14.6185 17.4021 14.6987 17.2792C14.7789 17.1563 14.8291 17.0162 14.8453 16.8703L15.039 15.1297L15.1258 15.043L16.8672 14.8438C17.0131 14.8276 17.1531 14.7774 17.2761 14.6972C17.399 14.617 17.5014 14.509 17.575 14.382C17.9612 13.7149 18.2572 12.9996 18.4555 12.2547C18.4929 12.1131 18.4966 11.9648 18.4663 11.8215C18.4361 11.6782 18.3727 11.5441 18.2812 11.4297L17.1875 10.0617ZM15.3031 9.6797C15.3156 9.89306 15.3156 10.107 15.3031 10.3203C15.2891 10.5523 15.3618 10.7811 15.507 10.9625L16.5101 12.2164C16.4154 12.4967 16.3024 12.7705 16.1719 13.0359L14.5758 13.2133C14.3447 13.2397 14.1317 13.3511 13.9781 13.5258C13.8362 13.6857 13.6849 13.837 13.525 13.9789C13.3503 14.1325 13.2389 14.3455 13.2125 14.5766L13.0359 16.1719C12.7705 16.303 12.4967 16.4165 12.2164 16.5117L10.9625 15.5078C10.7961 15.375 10.5894 15.3029 10.3765 15.3031C10.3578 15.3031 10.339 15.3031 10.3203 15.3031C10.1069 15.3156 9.89303 15.3156 9.67967 15.3031C9.44789 15.2894 9.2192 15.3617 9.03748 15.5063L7.78357 16.5102C7.50328 16.4155 7.22952 16.3025 6.96404 16.1719L6.7867 14.5758C6.76028 14.3447 6.6489 14.1317 6.4742 13.9781C6.31431 13.8362 6.163 13.6849 6.02107 13.525C5.86752 13.3503 5.6545 13.2389 5.42342 13.2125L3.82811 13.0359C3.69699 12.7705 3.58346 12.4967 3.48826 12.2164L4.49139 10.9625C4.63659 10.7811 4.70925 10.5523 4.69529 10.3203C4.68279 10.107 4.68279 9.89306 4.69529 9.6797C4.70925 9.44776 4.63659 9.21891 4.49139 9.03751L3.48982 7.7836C3.58452 7.50331 3.69752 7.22955 3.82811 6.96407L5.4242 6.78673C5.65529 6.76031 5.8683 6.64893 6.02186 6.47423C6.16378 6.31434 6.31509 6.16303 6.47498 6.0211C6.64968 5.86755 6.76106 5.65453 6.78748 5.42345L6.96404 3.82814C7.22948 3.69702 7.50325 3.58349 7.78357 3.48829L9.03748 4.4922C9.2192 4.63672 9.44789 4.70905 9.67967 4.69532C9.89303 4.68282 10.1069 4.68282 10.3203 4.69532C10.5521 4.7095 10.781 4.63712 10.9625 4.4922L12.2164 3.48829C12.4967 3.58349 12.7705 3.69702 13.0359 3.82814L13.2133 5.42423C13.2397 5.65531 13.3511 5.86833 13.5258 6.02188C13.6857 6.16381 13.837 6.31512 13.9789 6.47501C14.1324 6.64971 14.3455 6.76109 14.5765 6.78751L16.1719 6.96407C16.303 7.22951 16.4165 7.50327 16.5117 7.7836L15.5086 9.03751C15.3628 9.21868 15.2896 9.44756 15.3031 9.6797Z" fill="#7B7B7B"/>
</svg>
