<svg width="25" height="24" viewBox="0 0 25 24" fill="none" xmlns="http://www.w3.org/2000/svg">
<path d="M20.2969 3H8.29688C7.89905 3 7.51752 3.15804 7.23622 3.43934C6.95491 3.72064 6.79688 4.10218 6.79688 4.5V6H5.29688C4.89905 6 4.51752 6.15804 4.23621 6.43934C3.95491 6.72064 3.79688 7.10218 3.79688 7.5V19.5C3.79688 19.8978 3.95491 20.2794 4.23621 20.5607C4.51752 20.842 4.89905 21 5.29688 21H17.2969C17.6947 21 18.0762 20.842 18.3575 20.5607C18.6388 20.2794 18.7969 19.8978 18.7969 19.5V18H20.2969C20.6947 18 21.0762 17.842 21.3575 17.5607C21.6388 17.2794 21.7969 16.8978 21.7969 16.5V4.5C21.7969 4.10218 21.6388 3.72064 21.3575 3.43934C21.0762 3.15804 20.6947 3 20.2969 3ZM8.29688 4.5H20.2969V11.0044L18.7313 9.43875C18.45 9.15766 18.0686 8.99976 17.6709 8.99976C17.2733 8.99976 16.8919 9.15766 16.6106 9.43875L9.55031 16.5H8.29688V4.5ZM17.2969 19.5H5.29688V7.5H6.79688V16.5C6.79688 16.8978 6.95491 17.2794 7.23622 17.5607C7.51752 17.842 7.89905 18 8.29688 18H17.2969V19.5ZM10.5469 8.25C10.5469 7.95333 10.6348 7.66332 10.7997 7.41665C10.9645 7.16997 11.1988 6.97771 11.4728 6.86418C11.7469 6.75065 12.0485 6.72094 12.3395 6.77882C12.6305 6.8367 12.8978 6.97956 13.1075 7.18934C13.3173 7.39912 13.4602 7.66639 13.5181 7.95736C13.5759 8.24834 13.5462 8.54994 13.4327 8.82403C13.3192 9.09811 13.1269 9.33238 12.8802 9.4972C12.6336 9.66203 12.3435 9.75 12.0469 9.75C11.6491 9.75 11.2675 9.59196 10.9862 9.31066C10.7049 9.02936 10.5469 8.64782 10.5469 8.25Z" fill="#C4C4C4"/>
</svg>
