<svg width="14" height="14" viewBox="0 0 14 14" fill="none" xmlns="http://www.w3.org/2000/svg">
<path d="M11.8125 2.1875H2.1875C1.95544 2.1875 1.73288 2.27969 1.56878 2.44378C1.40469 2.60788 1.3125 2.83044 1.3125 3.0625V10.9375C1.3125 11.1696 1.40469 11.3921 1.56878 11.5562C1.73288 11.7203 1.95544 11.8125 2.1875 11.8125H11.8125C12.0446 11.8125 12.2671 11.7203 12.4312 11.5562C12.5953 11.3921 12.6875 11.1696 12.6875 10.9375V3.0625C12.6875 2.83044 12.5953 2.60788 12.4312 2.44378C12.2671 2.27969 12.0446 2.1875 11.8125 2.1875ZM8.53125 4.8125C8.66104 4.8125 8.78792 4.85099 8.89584 4.9231C9.00376 4.99521 9.08788 5.0977 9.13755 5.21761C9.18722 5.33753 9.20021 5.46948 9.17489 5.59678C9.14957 5.72408 9.08707 5.84101 8.99529 5.93279C8.90351 6.02457 8.78658 6.08707 8.65928 6.11239C8.53198 6.13771 8.40003 6.12472 8.28011 6.07505C8.1602 6.02538 8.05771 5.94126 7.9856 5.83334C7.91349 5.72542 7.875 5.59854 7.875 5.46875C7.875 5.2947 7.94414 5.12778 8.06721 5.00471C8.19028 4.88164 8.3572 4.8125 8.53125 4.8125ZM2.1875 10.9375V9.40625L5.03125 6.5625L9.40625 10.9375H2.1875ZM11.8125 10.9375H10.6438L8.67508 8.96875L9.76883 7.875L11.8125 9.91922V10.9375Z" fill="#A6BB8D"/>
</svg>
