<svg width="20" height="20" viewBox="0 0 20 20" fill="none" xmlns="http://www.w3.org/2000/svg">
<path d="M18.75 4.0625H1.25C1.00136 4.0625 0.762903 4.16127 0.587087 4.33709C0.411272 4.5129 0.3125 4.75136 0.3125 5V15C0.3125 15.2486 0.411272 15.4871 0.587087 15.6629C0.762903 15.8387 1.00136 15.9375 1.25 15.9375H18.75C18.9986 15.9375 19.2371 15.8387 19.4129 15.6629C19.5887 15.4871 19.6875 15.2486 19.6875 15V5C19.6875 4.75136 19.5887 4.5129 19.4129 4.33709C19.2371 4.16127 18.9986 4.0625 18.75 4.0625ZM14.157 14.0625H5.84297C5.65747 13.1627 5.21239 12.3369 4.56274 11.6873C3.91309 11.0376 3.08733 10.5925 2.1875 10.407V9.59297C3.08733 9.40747 3.91309 8.96239 4.56274 8.31274C5.21239 7.66309 5.65747 6.83733 5.84297 5.9375H14.157C14.3425 6.83733 14.7876 7.66309 15.4373 8.31274C16.0869 8.96239 16.9127 9.40747 17.8125 9.59297V10.407C16.9127 10.5925 16.0869 11.0376 15.4373 11.6873C14.7876 12.3369 14.3425 13.1627 14.157 14.0625ZM17.8125 7.65156C17.4177 7.51062 17.0591 7.28374 16.7627 6.98731C16.4663 6.69088 16.2394 6.33231 16.0984 5.9375H17.8125V7.65156ZM3.90156 5.9375C3.76062 6.33231 3.53374 6.69088 3.23731 6.98731C2.94088 7.28374 2.58231 7.51062 2.1875 7.65156V5.9375H3.90156ZM2.1875 12.3484C2.58231 12.4894 2.94088 12.7163 3.23731 13.0127C3.53374 13.3091 3.76062 13.6677 3.90156 14.0625H2.1875V12.3484ZM16.0984 14.0625C16.2394 13.6677 16.4663 13.3091 16.7627 13.0127C17.0591 12.7163 17.4177 12.4894 17.8125 12.3484V14.0625H16.0984ZM10 6.875C9.38193 6.875 8.77775 7.05828 8.26384 7.40166C7.74994 7.74504 7.3494 8.2331 7.11288 8.80411C6.87635 9.37513 6.81447 10.0035 6.93505 10.6097C7.05562 11.2158 7.35325 11.7727 7.79029 12.2097C8.22733 12.6467 8.78415 12.9444 9.39034 13.065C9.99653 13.1855 10.6249 13.1236 11.1959 12.8871C11.7669 12.6506 12.255 12.2501 12.5983 11.7362C12.9417 11.2223 13.125 10.6181 13.125 10C13.125 9.1712 12.7958 8.37634 12.2097 7.79029C11.6237 7.20424 10.8288 6.875 10 6.875ZM10 11.25C9.75277 11.25 9.5111 11.1767 9.30554 11.0393C9.09998 10.902 8.93976 10.7068 8.84515 10.4784C8.75054 10.2499 8.72579 9.99861 8.77402 9.75614C8.82225 9.51366 8.9413 9.29093 9.11612 9.11612C9.29093 8.9413 9.51366 8.82225 9.75614 8.77402C9.99861 8.72579 10.2499 8.75054 10.4784 8.84515C10.7068 8.93976 10.902 9.09998 11.0393 9.30554C11.1767 9.5111 11.25 9.75277 11.25 10C11.25 10.3315 11.1183 10.6495 10.8839 10.8839C10.6495 11.1183 10.3315 11.25 10 11.25Z" fill="#343330"/>
</svg>
