<svg width="30" height="30" viewBox="0 0 30 30" fill="none" xmlns="http://www.w3.org/2000/svg">
<rect width="30" height="30" rx="15" fill="#F6F8F4"/>
<path d="M16.75 8.875C16.0595 8.87562 15.3789 9.03954 14.7638 9.35338C14.1487 9.66723 13.6165 10.1221 13.2108 10.6808C12.805 11.2396 12.5372 11.8864 12.4291 12.5684C12.321 13.2504 12.3757 13.9483 12.5888 14.6052L9.44047 17.753C9.39985 17.7936 9.36765 17.8419 9.34569 17.895C9.32373 17.9481 9.31245 18.005 9.3125 18.0625V20.25C9.3125 20.366 9.35859 20.4773 9.44064 20.5594C9.52269 20.6414 9.63397 20.6875 9.75 20.6875H11.9375C12.0535 20.6875 12.1648 20.6414 12.2469 20.5594C12.3289 20.4773 12.375 20.366 12.375 20.25V19.375H13.25C13.366 19.375 13.4773 19.3289 13.5594 19.2469C13.6414 19.1648 13.6875 19.0535 13.6875 18.9375V18.0625H14.5625C14.62 18.0625 14.6769 18.0513 14.73 18.0293C14.7831 18.0074 14.8314 17.9751 14.872 17.9345L15.3948 17.4112C15.9961 17.6064 16.6326 17.669 17.2604 17.5946C17.8882 17.5203 18.4925 17.3107 19.0315 16.9805C19.5706 16.6502 20.0317 16.207 20.383 15.6814C20.7344 15.1558 20.9676 14.5603 21.0668 13.936C21.1659 13.3116 21.1285 12.6731 20.9572 12.0646C20.7859 11.456 20.4848 10.8918 20.0745 10.4108C19.6642 9.92984 19.1546 9.54347 18.5807 9.27834C18.0068 9.0132 17.3822 8.8756 16.75 8.875ZM17.8438 13.0312C17.6707 13.0312 17.5015 12.9799 17.3576 12.8838C17.2137 12.7876 17.1016 12.651 17.0354 12.4911C16.9691 12.3312 16.9518 12.1553 16.9856 11.9855C17.0193 11.8158 17.1027 11.6599 17.225 11.5375C17.3474 11.4152 17.5033 11.3318 17.673 11.2981C17.8428 11.2643 18.0187 11.2816 18.1786 11.3479C18.3385 11.4141 18.4751 11.5262 18.5713 11.6701C18.6674 11.814 18.7188 11.9832 18.7188 12.1562C18.7188 12.3883 18.6266 12.6109 18.4625 12.775C18.2984 12.9391 18.0758 13.0312 17.8438 13.0312Z" fill="#A6BB8D"/>
</svg>
