<svg width="20" height="20" viewBox="0 0 20 20" fill="none" xmlns="http://www.w3.org/2000/svg">
<path d="M17.832 4.92734L17.4679 4.71719C17.5106 4.49106 17.5106 4.25894 17.4679 4.03281L17.832 3.82266C17.9756 3.73978 18.0804 3.60325 18.1233 3.44311C18.1662 3.28297 18.1438 3.11234 18.0609 2.96875C17.978 2.82516 17.8415 2.72038 17.6814 2.67745C17.5212 2.63452 17.3506 2.65696 17.207 2.73984L16.8421 2.95078C16.6675 2.80098 16.4668 2.68471 16.25 2.60781V2.1875C16.25 2.02174 16.1841 1.86277 16.0669 1.74556C15.9497 1.62835 15.7907 1.5625 15.625 1.5625C15.4592 1.5625 15.3002 1.62835 15.183 1.74556C15.0658 1.86277 15 2.02174 15 2.1875V2.60781C14.7831 2.68471 14.5824 2.80098 14.4078 2.95078L14.0429 2.73984C13.9718 2.69881 13.8933 2.67217 13.812 2.66147C13.7306 2.65076 13.6479 2.65619 13.5686 2.67745C13.4893 2.6987 13.4149 2.73537 13.3498 2.78535C13.2847 2.83533 13.2301 2.89765 13.189 2.96875C13.148 3.03985 13.1214 3.11833 13.1106 3.19972C13.0999 3.28112 13.1054 3.36382 13.1266 3.44311C13.1479 3.5224 13.1845 3.59673 13.2345 3.66186C13.2845 3.72698 13.3468 3.78162 13.4179 3.82266L13.782 4.03281C13.7393 4.25894 13.7393 4.49106 13.782 4.71719L13.4179 4.92734C13.2987 4.9961 13.2055 5.10229 13.1528 5.22943C13.1001 5.35657 13.0909 5.49755 13.1265 5.63049C13.1621 5.76343 13.2406 5.8809 13.3498 5.96466C13.459 6.04843 13.5928 6.0938 13.7304 6.09375C13.8402 6.09409 13.948 6.06524 14.0429 6.01016L14.4078 5.79922C14.5824 5.94902 14.7831 6.06529 15 6.14219V6.5625C15 6.72826 15.0658 6.88723 15.183 7.00444C15.3002 7.12165 15.4592 7.1875 15.625 7.1875C15.7907 7.1875 15.9497 7.12165 16.0669 7.00444C16.1841 6.88723 16.25 6.72826 16.25 6.5625V6.14219C16.4668 6.06529 16.6675 5.94902 16.8421 5.79922L17.207 6.01016C17.3019 6.06524 17.4098 6.09409 17.5195 6.09375C17.6571 6.0938 17.7909 6.04843 17.9001 5.96466C18.0093 5.8809 18.0878 5.76343 18.1234 5.63049C18.1591 5.49755 18.1498 5.35657 18.0971 5.22943C18.0444 5.10229 17.9512 4.9961 17.832 4.92734ZM15.625 5C15.5013 5 15.3805 4.96334 15.2777 4.89467C15.1749 4.82599 15.0948 4.72838 15.0475 4.61418C15.0002 4.49997 14.9879 4.37431 15.012 4.25307C15.0361 4.13183 15.0956 4.02047 15.183 3.93306C15.2704 3.84565 15.3818 3.78612 15.503 3.76201C15.6243 3.73789 15.7499 3.75027 15.8641 3.79758C15.9783 3.84488 16.076 3.92499 16.1446 4.02777C16.2133 4.13055 16.25 4.25139 16.25 4.375C16.25 4.54076 16.1841 4.69973 16.0669 4.81694C15.9497 4.93415 15.7907 5 15.625 5ZM9.99996 5.9375C10.6798 5.9375 11.3444 6.13911 11.9097 6.51682C12.475 6.89454 12.9156 7.4314 13.1758 8.05953C13.436 8.68765 13.504 9.37881 13.3714 10.0456C13.2388 10.7124 12.9114 11.3249 12.4306 11.8057C11.9499 12.2864 11.3374 12.6138 10.6706 12.7464C10.0038 12.8791 9.31261 12.811 8.68449 12.5508C8.05636 12.2907 7.5195 11.8501 7.14178 11.2848C6.76407 10.7195 6.56246 10.0549 6.56246 9.375C6.56246 8.46332 6.92462 7.58898 7.56928 6.94432C8.21394 6.29966 9.08828 5.9375 9.99996 5.9375ZM18.0125 8.64687C18.298 10.3442 18.0367 12.0883 17.2664 13.6275C16.496 15.1666 15.2565 16.4211 13.7267 17.2099C12.1969 17.9986 10.456 18.2807 8.75538 18.0156C7.05477 17.7504 5.48243 16.9516 4.26539 15.7346C3.04834 14.5175 2.24957 12.9452 1.98439 11.2446C1.71922 9.54397 2.00137 7.80308 2.7901 6.27328C3.57884 4.74348 4.83334 3.50392 6.37249 2.73357C7.91163 1.96323 9.65577 1.70196 11.3531 1.9875C11.5153 2.01619 11.6597 2.10778 11.7547 2.24235C11.8498 2.37692 11.8879 2.54358 11.8607 2.70608C11.8335 2.86858 11.7432 3.01377 11.6096 3.11007C11.4759 3.20637 11.3096 3.24599 11.1468 3.22031C10.161 3.05447 9.15087 3.10545 8.18674 3.36969C7.22261 3.63394 6.32764 4.1051 5.56412 4.75039C4.80059 5.39568 4.18685 6.1996 3.76561 7.10621C3.34437 8.01281 3.12575 9.00031 3.12496 10C3.12348 11.683 3.74203 13.3075 4.86246 14.5633C5.31685 13.9042 5.89405 13.339 6.56246 12.8984C6.61945 12.8608 6.6872 12.8429 6.75534 12.8474C6.82349 12.8519 6.88828 12.8786 6.9398 12.9234C7.78896 13.6582 8.87432 14.0626 9.99722 14.0626C11.1201 14.0626 12.2055 13.6582 13.0546 12.9234C13.1062 12.8784 13.1712 12.8516 13.2395 12.8471C13.3078 12.8426 13.3757 12.8606 13.4328 12.8984C14.1018 13.339 14.6798 13.9042 15.1351 14.5633C16.2564 13.3078 16.8758 11.6833 16.875 10C16.875 9.61573 16.8431 9.23212 16.7796 8.85313C16.7653 8.77182 16.7671 8.68848 16.7852 8.6079C16.8032 8.52733 16.837 8.45112 16.8846 8.38369C16.9322 8.31625 16.9928 8.25892 17.0627 8.21501C17.1326 8.1711 17.2105 8.14148 17.292 8.12785C17.3734 8.11423 17.4567 8.11688 17.5371 8.13564C17.6175 8.1544 17.6934 8.18891 17.7604 8.23717C17.8274 8.28542 17.8842 8.34648 17.9274 8.4168C17.9707 8.48712 17.9996 8.56532 18.0125 8.64687Z" fill="#61876E"/>
</svg>
