<svg width="14" height="15" viewBox="0 0 14 15" fill="none" xmlns="http://www.w3.org/2000/svg">
<path d="M10.5 4.43732H8.32344C8.1643 4.42803 5.39109 4.23279 2.75023 2.01795C2.62271 1.91084 2.46726 1.84236 2.30216 1.82053C2.13706 1.79871 1.96916 1.82446 1.81819 1.89475C1.66721 1.96504 1.53943 2.07695 1.44985 2.21735C1.36028 2.35774 1.31263 2.52079 1.3125 2.68732V11.4373C1.31252 11.6039 1.3601 11.767 1.44963 11.9075C1.53917 12.048 1.66694 12.16 1.81794 12.2303C1.96893 12.3007 2.13688 12.3265 2.30203 12.3047C2.46718 12.2829 2.62267 12.2144 2.75023 12.1072C4.81578 10.3747 6.96117 9.87818 7.875 9.73928V11.474C7.87482 11.6181 7.91027 11.7601 7.9782 11.8873C8.04613 12.0145 8.14443 12.1229 8.26438 12.2029L8.86594 12.6038C8.98221 12.6814 9.11539 12.73 9.25431 12.7456C9.39324 12.7611 9.53387 12.7432 9.66443 12.6932C9.79499 12.6433 9.91168 12.5627 10.0047 12.4584C10.0978 12.3541 10.1645 12.229 10.1992 12.0936L10.8429 9.66764C11.5083 9.58589 12.1172 9.25265 12.5447 8.73626C12.9723 8.21987 13.186 7.55947 13.1422 6.8905C13.0983 6.22153 12.8002 5.59469 12.3089 5.13854C11.8176 4.68239 11.1704 4.4315 10.5 4.43732ZM9.35156 11.8688V11.8748L8.75 11.474V9.68732H9.93125L9.35156 11.8688ZM10.5 8.81232H8.75V5.31232H10.5C10.9641 5.31232 11.4092 5.4967 11.7374 5.82489C12.0656 6.15307 12.25 6.59819 12.25 7.06232C12.25 7.52645 12.0656 7.97157 11.7374 8.29976C11.4092 8.62795 10.9641 8.81232 10.5 8.81232Z" fill="#7B7B7B"/>
</svg>
