<svg width="14" height="14" viewBox="0 0 14 14" fill="none" xmlns="http://www.w3.org/2000/svg">
<path d="M3.9375 5.6875H5.6875V8.3125H3.9375V5.6875ZM12.6875 3.0625V11.8125C12.6875 11.8871 12.6684 11.9604 12.632 12.0255C12.5957 12.0906 12.5433 12.1453 12.4798 12.1845C12.4164 12.2237 12.344 12.246 12.2695 12.2493C12.195 12.2527 12.1209 12.2369 12.0542 12.2035L10.5 11.4264L8.94578 12.2035C8.885 12.2339 8.81797 12.2498 8.75 12.2498C8.68203 12.2498 8.615 12.2339 8.55422 12.2035L7 11.4264L5.44578 12.2035C5.385 12.2339 5.31797 12.2498 5.25 12.2498C5.18203 12.2498 5.115 12.2339 5.05422 12.2035L3.5 11.4264L1.94578 12.2035C1.8791 12.2369 1.80499 12.2527 1.7305 12.2493C1.65601 12.246 1.5836 12.2237 1.52015 12.1845C1.4567 12.1453 1.40432 12.0906 1.36798 12.0255C1.33164 11.9604 1.31254 11.8871 1.3125 11.8125V3.0625C1.3125 2.83044 1.40469 2.60788 1.56878 2.44378C1.73288 2.27969 1.95544 2.1875 2.1875 2.1875H11.8125C12.0446 2.1875 12.2671 2.27969 12.4312 2.44378C12.5953 2.60788 12.6875 2.83044 12.6875 3.0625ZM6.5625 5.25C6.5625 5.13397 6.51641 5.02269 6.43436 4.94064C6.35231 4.85859 6.24103 4.8125 6.125 4.8125H3.5C3.38397 4.8125 3.27269 4.85859 3.19064 4.94064C3.10859 5.02269 3.0625 5.13397 3.0625 5.25V8.75C3.0625 8.86603 3.10859 8.97731 3.19064 9.05936C3.27269 9.14141 3.38397 9.1875 3.5 9.1875H6.125C6.24103 9.1875 6.35231 9.14141 6.43436 9.05936C6.51641 8.97731 6.5625 8.86603 6.5625 8.75V5.25ZM10.9375 7.875C10.9375 7.75897 10.8914 7.64769 10.8094 7.56564C10.7273 7.48359 10.616 7.4375 10.5 7.4375H7.875C7.75897 7.4375 7.64769 7.48359 7.56564 7.56564C7.48359 7.64769 7.4375 7.75897 7.4375 7.875C7.4375 7.99103 7.48359 8.10231 7.56564 8.18436C7.64769 8.26641 7.75897 8.3125 7.875 8.3125H10.5C10.616 8.3125 10.7273 8.26641 10.8094 8.18436C10.8914 8.10231 10.9375 7.99103 10.9375 7.875ZM10.9375 6.125C10.9375 6.00897 10.8914 5.89769 10.8094 5.81564C10.7273 5.73359 10.616 5.6875 10.5 5.6875H7.875C7.75897 5.6875 7.64769 5.73359 7.56564 5.81564C7.48359 5.89769 7.4375 6.00897 7.4375 6.125C7.4375 6.24103 7.48359 6.35231 7.56564 6.43436C7.64769 6.51641 7.75897 6.5625 7.875 6.5625H10.5C10.616 6.5625 10.7273 6.51641 10.8094 6.43436C10.8914 6.35231 10.9375 6.24103 10.9375 6.125Z" fill="#A6BB8D"/>
</svg>
