<svg width="48" height="48" viewBox="0 0 48 48" fill="none" xmlns="http://www.w3.org/2000/svg">
<rect width="48" height="48" rx="24" fill="#FEFAE8"/>
<path d="M32.97 18.2015L24.72 13.6874C24.4996 13.5656 24.2518 13.5017 24 13.5017C23.7482 13.5017 23.5004 13.5656 23.28 13.6874L15.03 18.2033C14.7944 18.3322 14.5977 18.522 14.4605 18.7529C14.3233 18.9838 14.2506 19.2473 14.25 19.5158V28.4821C14.2506 28.7506 14.3233 29.0141 14.4605 29.245C14.5977 29.4759 14.7944 29.6657 15.03 29.7946L23.28 34.3105C23.5004 34.4323 23.7482 34.4962 24 34.4962C24.2518 34.4962 24.4996 34.4323 24.72 34.3105L32.97 29.7946C33.2056 29.6657 33.4023 29.4759 33.5395 29.245C33.6767 29.0141 33.7494 28.7506 33.75 28.4821V19.5168C33.7499 19.2477 33.6774 18.9837 33.5402 18.7523C33.403 18.5208 33.206 18.3306 32.97 18.2015ZM24 14.9999L31.5328 19.1249L28.7409 20.6521L21.2081 16.5271L24 14.9999ZM24 23.2499L16.4672 19.1249L19.6462 17.384L27.1791 21.509L24 23.2499ZM32.25 28.4858L24.75 32.5911V24.5465L27.75 22.9049V26.2499C27.75 26.4488 27.829 26.6396 27.9697 26.7802C28.1103 26.9209 28.3011 26.9999 28.5 26.9999C28.6989 26.9999 28.8897 26.9209 29.0303 26.7802C29.171 26.6396 29.25 26.4488 29.25 26.2499V22.0836L32.25 20.4421V28.4821V28.4858Z" fill="#C7A217"/>
</svg>
