<svg width="30" height="30" viewBox="0 0 30 30" fill="none" xmlns="http://www.w3.org/2000/svg">
<rect width="30" height="30" rx="15" fill="#F6F8F4"/>
<path d="M19.8125 10.1875H10.1875C9.95544 10.1875 9.73288 10.2797 9.56878 10.4438C9.40469 10.6079 9.3125 10.8304 9.3125 11.0625V19.375C9.31254 19.4496 9.33164 19.5229 9.36798 19.588C9.40432 19.6531 9.4567 19.7078 9.52015 19.747C9.5836 19.7862 9.65601 19.8085 9.7305 19.8118C9.80499 19.8152 9.8791 19.7994 9.94578 19.766L11.5 18.9889L13.0542 19.766C13.115 19.7964 13.182 19.8123 13.25 19.8123C13.318 19.8123 13.385 19.7964 13.4458 19.766L15 18.9889L16.5542 19.766C16.615 19.7964 16.682 19.8123 16.75 19.8123C16.818 19.8123 16.885 19.7964 16.9458 19.766L18.5 18.9889L20.0542 19.766C20.1209 19.7994 20.195 19.8152 20.2695 19.8118C20.344 19.8085 20.4164 19.7862 20.4798 19.747C20.5433 19.7078 20.5957 19.6531 20.632 19.588C20.6684 19.5229 20.6875 19.4496 20.6875 19.375V11.0625C20.6875 10.8304 20.5953 10.6079 20.4312 10.4438C20.2671 10.2797 20.0446 10.1875 19.8125 10.1875ZM17.625 15.875H12.375C12.259 15.875 12.1477 15.8289 12.0656 15.7469C11.9836 15.6648 11.9375 15.5535 11.9375 15.4375C11.9375 15.3215 11.9836 15.2102 12.0656 15.1281C12.1477 15.0461 12.259 15 12.375 15H17.625C17.741 15 17.8523 15.0461 17.9344 15.1281C18.0164 15.2102 18.0625 15.3215 18.0625 15.4375C18.0625 15.5535 18.0164 15.6648 17.9344 15.7469C17.8523 15.8289 17.741 15.875 17.625 15.875ZM17.625 14.125H12.375C12.259 14.125 12.1477 14.0789 12.0656 13.9969C11.9836 13.9148 11.9375 13.8035 11.9375 13.6875C11.9375 13.5715 11.9836 13.4602 12.0656 13.3781C12.1477 13.2961 12.259 13.25 12.375 13.25H17.625C17.741 13.25 17.8523 13.2961 17.9344 13.3781C18.0164 13.4602 18.0625 13.5715 18.0625 13.6875C18.0625 13.8035 18.0164 13.9148 17.9344 13.9969C17.8523 14.0789 17.741 14.125 17.625 14.125Z" fill="#61876E"/>
</svg>
