<svg width="14" height="14" viewBox="0 0 14 14" fill="none" xmlns="http://www.w3.org/2000/svg">
<path d="M12.6866 9.1875H3.49145C3.63692 8.90094 3.78293 8.60617 3.92895 8.30648C4.74598 8.39672 5.71286 7.82523 6.81317 6.59914C6.84598 6.68992 6.88262 6.78344 6.92254 6.87805C7.27856 7.71203 7.73793 8.18727 8.28973 8.29172C8.8552 8.40109 9.4152 8.11508 9.98942 7.42656C10.3624 7.86789 11.128 8.3125 12.6866 8.3125C12.8026 8.3125 12.9139 8.26641 12.996 8.18436C13.078 8.10231 13.1241 7.99103 13.1241 7.875C13.1241 7.75897 13.078 7.64769 12.996 7.56564C12.9139 7.48359 12.8026 7.4375 12.6866 7.4375C11.0115 7.4375 10.5237 6.85836 10.4991 6.55047C10.4964 6.4487 10.4584 6.35104 10.3914 6.27432C10.3245 6.1976 10.2329 6.14662 10.1325 6.13017C10.032 6.11371 9.92893 6.13281 9.84103 6.18418C9.75313 6.23554 9.68589 6.31596 9.6509 6.41156C8.98536 7.40961 8.59106 7.45828 8.44778 7.43203C7.99223 7.34617 7.5684 6.28742 7.42567 5.59945C7.40699 5.51257 7.3623 5.43343 7.29753 5.37257C7.23277 5.31171 7.151 5.27202 7.06312 5.25878C6.97524 5.24554 6.88542 5.25938 6.80559 5.29845C6.72577 5.33752 6.65974 5.39997 6.61629 5.4775C5.53348 6.82391 4.80723 7.28219 4.35168 7.39922C4.81598 6.36672 5.1627 5.46055 5.38473 4.69766C5.7577 3.41578 5.78504 2.51945 5.46731 1.95781C5.30325 1.66469 4.95926 1.31523 4.26911 1.3125H4.25543C3.38043 1.31852 2.69137 2.14922 2.36215 3.59297C2.16582 4.45211 2.13356 5.40805 2.27301 6.21797C2.41247 7.02789 2.70286 7.61305 3.1234 7.96195C2.91997 8.38469 2.71161 8.79758 2.50926 9.18859H1.31161C1.19557 9.18859 1.08429 9.23469 1.00225 9.31673C0.920199 9.39878 0.874106 9.51006 0.874106 9.62609C0.874106 9.74213 0.920199 9.85341 1.00225 9.93545C1.08429 10.0175 1.19557 10.0636 1.31161 10.0636H2.04496C1.4259 11.212 0.944652 12.0127 0.936996 12.0258C0.905805 12.075 0.884777 12.13 0.875148 12.1876C0.865518 12.2451 0.867482 12.3039 0.880923 12.3607C0.894364 12.4174 0.919011 12.4709 0.953416 12.518C0.987822 12.565 1.03129 12.6048 1.08127 12.6348C1.13124 12.6648 1.18672 12.6846 1.24444 12.6929C1.30216 12.7012 1.36095 12.6978 1.41736 12.6831C1.47377 12.6683 1.52666 12.6424 1.57293 12.6069C1.61919 12.5714 1.65789 12.5271 1.68676 12.4764C1.69496 12.4622 2.30309 11.4488 3.03754 10.0636H12.6866C12.8026 10.0636 12.9139 10.0175 12.996 9.93545C13.078 9.85341 13.1241 9.74213 13.1241 9.62609C13.1241 9.51006 13.078 9.39878 12.996 9.31673C12.9139 9.23469 12.8026 9.18859 12.6866 9.18859V9.1875ZM10.4991 6.5625V6.55102C10.4995 6.55484 10.4995 6.55868 10.4991 6.5625Z" fill="#A6BB8D"/>
</svg>
