<svg width="20" height="20" viewBox="0 0 20 20" fill="none" xmlns="http://www.w3.org/2000/svg">
<path d="M18.125 9.0625H17.1266C17.0454 8.43927 16.882 7.82954 16.6406 7.24922L17.5063 6.74922C17.6152 6.68891 17.7111 6.60749 17.7883 6.50971C17.8654 6.41194 17.9223 6.29977 17.9556 6.17975C17.989 6.05974 17.998 5.93429 17.9823 5.81073C17.9666 5.68717 17.9264 5.56798 17.8642 5.46012C17.8019 5.35226 17.7187 5.25789 17.6196 5.18253C17.5204 5.10717 17.4072 5.05232 17.2866 5.0212C17.166 4.99007 17.0404 4.98329 16.9171 5.00124C16.7939 5.0192 16.6755 5.06154 16.5688 5.12578L15.7031 5.625C15.3198 5.12661 14.8734 4.68016 14.375 4.29688L14.8758 3.42891C14.94 3.3222 14.9824 3.20376 15.0003 3.08051C15.0183 2.95726 15.0115 2.83166 14.9804 2.71106C14.9492 2.59046 14.8944 2.47727 14.819 2.3781C14.7437 2.27894 14.6493 2.19578 14.5414 2.1335C14.4336 2.07121 14.3144 2.03104 14.1908 2.01533C14.0673 1.99963 13.9418 2.0087 13.8218 2.04202C13.7018 2.07534 13.5896 2.13224 13.4918 2.2094C13.3941 2.28656 13.3127 2.38243 13.2523 2.49141L12.7508 3.35938C12.1705 3.11804 11.5607 2.95464 10.9375 2.87344V1.875C10.9375 1.62636 10.8387 1.3879 10.6629 1.21209C10.4871 1.03627 10.2486 0.9375 10 0.9375C9.75136 0.9375 9.5129 1.03627 9.33709 1.21209C9.16127 1.3879 9.0625 1.62636 9.0625 1.875V2.87344C8.43927 2.95464 7.82954 3.11804 7.24922 3.35938L6.74922 2.49375C6.6225 2.28327 6.41822 2.13095 6.18034 2.06955C5.94245 2.00816 5.68998 2.04259 5.47722 2.16545C5.26447 2.28831 5.10845 2.48978 5.04272 2.7265C4.977 2.96323 5.00682 3.21629 5.12578 3.43125L5.625 4.29688C5.12661 4.68016 4.68016 5.12661 4.29688 5.625L3.43203 5.12578C3.21707 5.00682 2.96401 4.977 2.72728 5.04272C2.49056 5.10845 2.28909 5.26447 2.16623 5.47722C2.04337 5.68998 2.00894 5.94245 2.07034 6.18034C2.13173 6.41822 2.28405 6.6225 2.49453 6.74922L3.35938 7.24922C3.11804 7.82954 2.95464 8.43927 2.87344 9.0625H1.875C1.62636 9.0625 1.3879 9.16127 1.21209 9.33709C1.03627 9.5129 0.9375 9.75136 0.9375 10C0.9375 10.2486 1.03627 10.4871 1.21209 10.6629C1.3879 10.8387 1.62636 10.9375 1.875 10.9375H2.87344C2.95464 11.5607 3.11804 12.1705 3.35938 12.7508L2.49375 13.2508C2.38477 13.3111 2.2889 13.3925 2.21174 13.4903C2.13459 13.5881 2.07769 13.7002 2.04436 13.8202C2.01104 13.9403 2.00197 14.0657 2.01768 14.1893C2.03338 14.3128 2.07355 14.432 2.13584 14.5399C2.19813 14.6477 2.28128 14.7421 2.38045 14.8175C2.47961 14.8928 2.5928 14.9477 2.71341 14.9788C2.83401 15.0099 2.9596 15.0167 3.08285 14.9988C3.20611 14.9808 3.32454 14.9385 3.43125 14.8742L4.29688 14.375C4.68016 14.8734 5.12661 15.3198 5.625 15.7031L5.12422 16.5711C5.05997 16.6778 5.01764 16.7962 4.99968 16.9195C4.98172 17.0427 4.98851 17.1683 5.01963 17.2889C5.05076 17.4095 5.10561 17.5227 5.18097 17.6219C5.25633 17.7211 5.3507 17.8042 5.45856 17.8665C5.56642 17.9288 5.68561 17.969 5.80917 17.9847C5.93273 18.0004 6.05818 17.9913 6.17819 17.958C6.2982 17.9247 6.41038 17.8678 6.50815 17.7906C6.60593 17.7134 6.68735 17.6176 6.74766 17.5086L7.24922 16.6406C7.82954 16.882 8.43927 17.0454 9.0625 17.1266V18.125C9.0625 18.3736 9.16127 18.6121 9.33709 18.7879C9.5129 18.9637 9.75136 19.0625 10 19.0625C10.2486 19.0625 10.4871 18.9637 10.6629 18.7879C10.8387 18.6121 10.9375 18.3736 10.9375 18.125V17.1266C11.5607 17.0454 12.1705 16.882 12.7508 16.6406L13.2508 17.5063C13.3775 17.7167 13.5818 17.869 13.8197 17.9304C14.0575 17.9918 14.31 17.9574 14.5228 17.8345C14.7355 17.7117 14.8916 17.5102 14.9573 17.2735C15.023 17.0368 14.9932 16.7837 14.8742 16.5688L14.375 15.7031C14.8734 15.3198 15.3198 14.8734 15.7031 14.375L16.5711 14.8758C16.6778 14.94 16.7962 14.9824 16.9195 15.0003C17.0427 15.0183 17.1683 15.0115 17.2889 14.9804C17.4095 14.9492 17.5227 14.8944 17.6219 14.819C17.7211 14.7437 17.8042 14.6493 17.8665 14.5414C17.9288 14.4336 17.969 14.3144 17.9847 14.1908C18.0004 14.0673 17.9913 13.9418 17.958 13.8218C17.9247 13.7018 17.8678 13.5896 17.7906 13.4918C17.7134 13.3941 17.6176 13.3127 17.5086 13.2523L16.6406 12.7508C16.882 12.1705 17.0454 11.5607 17.1266 10.9375H18.125C18.3736 10.9375 18.6121 10.8387 18.7879 10.6629C18.9637 10.4871 19.0625 10.2486 19.0625 10C19.0625 9.75136 18.9637 9.5129 18.7879 9.33709C18.6121 9.16127 18.3736 9.0625 18.125 9.0625ZM10 4.6875C11.2458 4.68926 12.4514 5.12814 13.4068 5.92764C14.3622 6.72713 15.0068 7.83654 15.2281 9.0625H10.5406L8.19687 5C8.77516 4.79172 9.38535 4.68596 10 4.6875ZM4.6875 10C4.68755 9.22708 4.85651 8.46351 5.18255 7.76273C5.50858 7.06194 5.98382 6.44087 6.575 5.94297L8.91875 10L6.575 14.057C5.98382 13.5591 5.50858 12.9381 5.18255 12.2373C4.85651 11.5365 4.68755 10.7729 4.6875 10ZM10 15.3125C9.38562 15.3139 8.77569 15.2082 8.19766 15L10.5414 10.9375H15.2289C15.0075 12.1636 14.3629 13.2731 13.4073 14.0726C12.4518 14.8721 11.2459 15.3109 10 15.3125Z" fill="#555555"/>
</svg>
