<svg width="48" height="48" viewBox="0 0 48 48" fill="none" xmlns="http://www.w3.org/2000/svg">
<rect width="48" height="48" rx="24" fill="#EFF3F1"/>
<path d="M35.1966 22.9688L33.8841 19.6875C33.7727 19.4097 33.5804 19.1718 33.3321 19.0047C33.0839 18.8375 32.7912 18.7488 32.4919 18.75H29.25V18C29.25 17.8011 29.171 17.6103 29.0303 17.4697C28.8897 17.329 28.6989 17.25 28.5 17.25H14.25C13.8522 17.25 13.4706 17.408 13.1893 17.6893C12.908 17.9706 12.75 18.3522 12.75 18.75V29.25C12.75 29.6478 12.908 30.0294 13.1893 30.3107C13.4706 30.592 13.8522 30.75 14.25 30.75H15.8438C16.009 31.3953 16.3843 31.9673 16.9105 32.3757C17.4367 32.7842 18.0839 33.0059 18.75 33.0059C19.4161 33.0059 20.0633 32.7842 20.5895 32.3757C21.1157 31.9673 21.491 31.3953 21.6562 30.75H26.3438C26.509 31.3953 26.8843 31.9673 27.4105 32.3757C27.9367 32.7842 28.5839 33.0059 29.25 33.0059C29.9161 33.0059 30.5633 32.7842 31.0895 32.3757C31.6157 31.9673 31.991 31.3953 32.1562 30.75H33.75C34.1478 30.75 34.5294 30.592 34.8107 30.3107C35.092 30.0294 35.25 29.6478 35.25 29.25V23.25C35.2501 23.1537 35.232 23.0583 35.1966 22.9688ZM18.75 31.5C18.4533 31.5 18.1633 31.412 17.9166 31.2472C17.67 31.0824 17.4777 30.8481 17.3642 30.574C17.2506 30.2999 17.2209 29.9983 17.2788 29.7074C17.3367 29.4164 17.4796 29.1491 17.6893 28.9393C17.8991 28.7296 18.1664 28.5867 18.4574 28.5288C18.7483 28.4709 19.0499 28.5006 19.324 28.6142C19.5981 28.7277 19.8324 28.92 19.9972 29.1666C20.162 29.4133 20.25 29.7033 20.25 30C20.25 30.3978 20.092 30.7794 19.8107 31.0607C19.5294 31.342 19.1478 31.5 18.75 31.5ZM14.25 24.75V18.75H27.75V24.75H14.25ZM29.25 31.5C28.9533 31.5 28.6633 31.412 28.4166 31.2472C28.17 31.0824 27.9777 30.8481 27.8642 30.574C27.7506 30.2999 27.7209 29.9983 27.7788 29.7074C27.8367 29.4164 27.9796 29.1491 28.1893 28.9393C28.3991 28.7296 28.6664 28.5867 28.9574 28.5288C29.2483 28.4709 29.5499 28.5006 29.824 28.6142C30.0981 28.7277 30.3324 28.92 30.4972 29.1666C30.662 29.4133 30.75 29.7033 30.75 30C30.75 30.3978 30.592 30.7794 30.3107 31.0607C30.0294 31.342 29.6478 31.5 29.25 31.5ZM29.25 22.5V20.25H32.4919L33.3919 22.5H29.25Z" fill="#61876E"/>
</svg>
