<svg width="92" height="92" viewBox="0 0 92 92" fill="none" xmlns="http://www.w3.org/2000/svg">
<path opacity="0.2" d="M74.75 14.375H28.75C27.9875 14.375 27.2562 14.6779 26.7171 15.2171C26.1779 15.7562 25.875 16.4875 25.875 17.25V63.25C25.875 64.0125 26.1779 64.7438 26.7171 65.2829C27.2562 65.8221 27.9875 66.125 28.75 66.125H34.748L62.6534 38.2159C62.9204 37.9486 63.2375 37.7366 63.5865 37.5919C63.9356 37.4472 64.3097 37.3727 64.6875 37.3727C65.0653 37.3727 65.4394 37.4472 65.7885 37.5919C66.1375 37.7366 66.4546 37.9486 66.7216 38.2159L77.625 49.123V17.25C77.625 16.4875 77.3221 15.7562 76.7829 15.2171C76.2438 14.6779 75.5125 14.375 74.75 14.375ZM43.125 37.375C41.9878 37.375 40.8761 37.0378 39.9305 36.406C38.9849 35.7741 38.2479 34.8761 37.8127 33.8254C37.3775 32.7748 37.2636 31.6186 37.4855 30.5032C37.7073 29.3878 38.255 28.3633 39.0591 27.5591C39.8633 26.755 40.8878 26.2073 42.0032 25.9855C43.1186 25.7636 44.2748 25.8775 45.3254 26.3127C46.3761 26.7479 47.2741 27.4849 47.906 28.4305C48.5378 29.3761 48.875 30.4878 48.875 31.625C48.875 33.15 48.2692 34.6125 47.1909 35.6909C46.1125 36.7692 44.65 37.375 43.125 37.375Z" fill="#9D9D9D"/>
<path d="M74.75 11.5H28.75C27.225 11.5 25.7625 12.1058 24.6841 13.1841C23.6058 14.2625 23 15.725 23 17.25V23H17.25C15.725 23 14.2625 23.6058 13.1841 24.6841C12.1058 25.7625 11.5 27.225 11.5 28.75V74.75C11.5 76.275 12.1058 77.7375 13.1841 78.8159C14.2625 79.8942 15.725 80.5 17.25 80.5H63.25C64.775 80.5 66.2375 79.8942 67.3159 78.8159C68.3942 77.7375 69 76.275 69 74.75V69H74.75C76.275 69 77.7375 68.3942 78.8159 67.3159C79.8942 66.2375 80.5 64.775 80.5 63.25V17.25C80.5 15.725 79.8942 14.2625 78.8159 13.1841C77.7375 12.1058 76.275 11.5 74.75 11.5ZM28.75 17.25H74.75V42.1834L68.7484 36.1819C67.6702 35.1044 66.2082 34.4991 64.6839 34.4991C63.1596 34.4991 61.6976 35.1044 60.6194 36.1819L33.5548 63.25H28.75V17.25ZM63.25 74.75H17.25V28.75H23V63.25C23 64.775 23.6058 66.2375 24.6841 67.3159C25.7625 68.3942 27.225 69 28.75 69H63.25V74.75ZM74.75 63.25H41.6875L64.6875 40.25L74.75 50.3125V63.25ZM43.125 40.25C44.8309 40.25 46.4984 39.7442 47.9168 38.7964C49.3352 37.8487 50.4407 36.5017 51.0935 34.9256C51.7463 33.3496 51.9171 31.6154 51.5843 29.9423C51.2515 28.2693 50.43 26.7324 49.2238 25.5262C48.0176 24.32 46.4807 23.4985 44.8077 23.1657C43.1346 22.8329 41.4004 23.0037 39.8244 23.6565C38.2483 24.3093 36.9013 25.4148 35.9536 26.8332C35.0058 28.2516 34.5 29.9191 34.5 31.625C34.5 33.9125 35.4087 36.1063 37.0262 37.7238C38.6437 39.3413 40.8375 40.25 43.125 40.25ZM43.125 28.75C43.6936 28.75 44.2495 28.9186 44.7223 29.2345C45.1951 29.5504 45.5636 29.9994 45.7812 30.5248C45.9988 31.0501 46.0557 31.6282 45.9448 32.1859C45.8338 32.7436 45.56 33.2559 45.1579 33.6579C44.7559 34.06 44.2436 34.3338 43.6859 34.4448C43.1282 34.5557 42.5501 34.4988 42.0248 34.2812C41.4994 34.0636 41.0504 33.6951 40.7345 33.2223C40.4186 32.7495 40.25 32.1936 40.25 31.625C40.25 30.8625 40.5529 30.1312 41.0921 29.5921C41.6312 29.0529 42.3625 28.75 43.125 28.75Z" fill="#9D9D9D"/>
</svg>
