<svg width="48" height="48" viewBox="0 0 48 48" fill="none" xmlns="http://www.w3.org/2000/svg">
<rect width="48" height="48" rx="24" fill="#F3F2E9"/>
<path d="M18.0113 25.8561C18.0138 25.9069 18.006 25.9577 17.9883 26.0054C17.9706 26.0531 17.9434 26.0967 17.9083 26.1335C17.8732 26.1704 17.831 26.1997 17.7842 26.2197C17.7375 26.2397 17.6871 26.25 17.6363 26.2499H13.5C13.3307 26.2502 13.1663 26.1931 13.0336 26.0881C12.9008 25.9831 12.8075 25.8363 12.7688 25.6715C12.7446 25.5587 12.7458 25.4419 12.772 25.3296C12.7983 25.2173 12.849 25.1122 12.9206 25.0218C13.5823 24.1443 14.4603 23.4533 15.4688 23.0165C15.026 22.6128 14.6864 22.1089 14.4785 21.547C14.2705 20.9851 14.2002 20.3815 14.2735 19.7868C14.3467 19.1922 14.5614 18.6237 14.8995 18.1291C15.2377 17.6344 15.6894 17.228 16.2169 16.9439C16.7444 16.6597 17.3323 16.5061 17.9314 16.4959C18.5305 16.4857 19.1233 16.6192 19.6601 16.8852C20.197 17.1512 20.6624 17.5419 21.0171 18.0248C21.3719 18.5076 21.6059 19.0684 21.6994 19.6602C21.7115 19.7398 21.6972 19.8211 21.6588 19.8919C21.6204 19.9626 21.5599 20.0189 21.4866 20.0521C20.4463 20.533 19.5653 21.3014 18.9475 22.2667C18.3298 23.232 18.001 24.3539 18 25.4999C18 25.6199 18 25.738 18.0113 25.8561ZM35.0738 25.0208C34.4136 24.1443 33.5376 23.4538 32.5313 23.0165C32.974 22.6128 33.3136 22.1089 33.5216 21.547C33.7295 20.9851 33.7998 20.3815 33.7266 19.7868C33.6533 19.1922 33.4386 18.6237 33.1005 18.1291C32.7623 17.6344 32.3106 17.228 31.7831 16.9439C31.2556 16.6597 30.6677 16.5061 30.0686 16.4959C29.4696 16.4857 28.8768 16.6192 28.3399 16.8852C27.803 17.1512 27.3377 17.5419 26.9829 18.0248C26.6281 18.5076 26.3941 19.0684 26.3006 19.6602C26.2886 19.7398 26.3028 19.8211 26.3412 19.8919C26.3796 19.9626 26.4401 20.0189 26.5134 20.0521C27.5537 20.533 28.4347 21.3014 29.0525 22.2667C29.6702 23.232 29.999 24.3539 30 25.4999C30 25.6199 30 25.738 29.9888 25.8561C29.9862 25.9069 29.994 25.9577 30.0117 26.0054C30.0294 26.0531 30.0567 26.0967 30.0917 26.1335C30.1268 26.1704 30.169 26.1997 30.2158 26.2197C30.2626 26.2397 30.3129 26.25 30.3638 26.2499H34.5C34.6693 26.2502 34.8337 26.1931 34.9664 26.0881C35.0992 25.9831 35.1925 25.8363 35.2313 25.6715C35.2555 25.5585 35.2544 25.4415 35.228 25.329C35.2015 25.2165 35.1505 25.1112 35.0784 25.0208H35.0738ZM26.73 29.069C27.4768 28.4971 28.0256 27.7055 28.2992 26.8056C28.5729 25.9057 28.5577 24.9427 28.2558 24.0518C27.9538 23.161 27.3804 22.3872 26.6159 21.8391C25.8515 21.2911 24.9345 20.9963 23.9939 20.9963C23.0533 20.9963 22.1364 21.2911 21.3719 21.8391C20.6075 22.3872 20.034 23.161 19.7321 24.0518C19.4301 24.9427 19.4149 25.9057 19.6886 26.8056C19.9623 27.7055 20.5111 28.4971 21.2578 29.069C19.9327 29.6431 18.8262 30.6264 18.1003 31.8749C18.0345 31.9889 17.9998 32.1183 17.9998 32.2499C17.9998 32.3816 18.0345 32.511 18.1004 32.625C18.1662 32.739 18.2609 32.8337 18.375 32.8995C18.489 32.9653 18.6183 32.9999 18.75 32.9999H29.25C29.3817 32.9999 29.511 32.9653 29.6251 32.8995C29.7391 32.8337 29.8338 32.739 29.8997 32.625C29.9655 32.511 30.0002 32.3816 30.0002 32.2499C30.0002 32.1183 29.9655 31.9889 29.8997 31.8749C29.1723 30.6256 28.0637 29.6422 26.7366 29.069H26.73Z" fill="#898121"/>
</svg>
