<svg width="30" height="30" viewBox="0 0 30 30" fill="none" xmlns="http://www.w3.org/2000/svg">
<rect width="30" height="30" rx="15" fill="#F6F8F4"/>
<path d="M20.629 20.0313C20.5906 20.0978 20.5354 20.153 20.4688 20.1914C20.4023 20.2298 20.3269 20.25 20.25 20.25H9.75004C9.67328 20.2499 9.59789 20.2297 9.53145 20.1912C9.465 20.1528 9.40984 20.0976 9.37149 20.0311C9.33314 19.9646 9.31297 19.8892 9.31299 19.8124C9.31301 19.7357 9.33322 19.6602 9.3716 19.5938C10.2045 18.1539 11.488 17.1214 12.9859 16.6319C12.245 16.1908 11.6693 15.5187 11.3473 14.7188C11.0254 13.9189 10.9749 13.0354 11.2036 12.204C11.4323 11.3727 11.9277 10.6393 12.6135 10.1167C13.2993 9.59408 14.1378 9.31104 15 9.31104C15.8623 9.31104 16.7008 9.59408 17.3866 10.1167C18.0724 10.6393 18.5677 11.3727 18.7965 12.204C19.0252 13.0354 18.9747 13.9189 18.6527 14.7188C18.3308 15.5187 17.7551 16.1908 17.0142 16.6319C18.5121 17.1214 19.7956 18.1539 20.6285 19.5938C20.667 19.6602 20.6873 19.7357 20.6874 19.8124C20.6875 19.8892 20.6673 19.9647 20.629 20.0313Z" fill="#A6BB8D"/>
</svg>
